<svg version="1.1" id="Layer_1" xmlns="http://www.w3.org/2000/svg" xmlns:xlink="http://www.w3.org/1999/xlink" x="0px" y="0px"
	 width="100%" viewBox="0 0 1903 366" enable-background="new 0 0 1903 366" xml:space="preserve">
<path fill="#000000" opacity="0.000000" stroke="none" 
	d="
M1425.000000,367.000000 
	C950.000000,367.000000 475.500000,367.000000 1.000000,367.000000 
	C1.000000,245.000000 1.000000,123.000000 1.000000,1.000000 
	C635.333313,1.000000 1269.666626,1.000000 1904.000000,1.000000 
	C1904.000000,123.000000 1904.000000,245.000000 1904.000000,367.000000 
	C1744.500000,367.000000 1585.000000,367.000000 1425.000000,367.000000 
M1693.812622,239.522049 
	C1693.872803,205.048340 1693.938354,170.574646 1693.952148,136.100922 
	C1693.952515,135.456177 1693.338379,134.811188 1692.081177,134.027130 
	C1684.487061,134.027130 1676.892944,134.027130 1669.000000,134.027130 
	C1669.000000,136.447586 1669.024658,138.254669 1668.996216,140.060928 
	C1668.669189,160.808304 1667.917358,181.560471 1668.161255,202.300964 
	C1668.301392,214.214478 1658.510986,221.002762 1649.360962,222.863724 
	C1640.275269,224.711609 1631.063843,219.710434 1627.987183,211.413620 
	C1626.552124,207.543991 1626.124390,203.123505 1626.083862,198.944489 
	C1625.894653,179.463287 1626.000000,159.979233 1626.000000,140.496201 
	C1626.000000,138.742249 1626.000000,136.988312 1626.000000,135.232269 
	C1617.352539,135.232269 1609.421875,135.232269 1601.000000,135.232269 
	C1601.000000,137.240158 1601.000000,139.024078 1601.000000,140.807999 
	C1601.000000,162.122757 1600.953613,183.437729 1601.047485,204.752060 
	C1601.062622,208.166687 1601.323730,211.670441 1602.119873,214.976761 
	C1607.120850,235.744904 1625.420166,247.336670 1645.917847,241.758484 
	C1654.194580,239.506058 1661.736450,234.552429 1669.960938,230.663437 
	C1671.715942,239.681641 1678.308350,242.342178 1687.288574,240.984482 
	C1689.210205,240.693985 1691.104126,240.222061 1693.812622,239.522049 
M1056.905151,234.039780 
	C1058.954468,235.029816 1061.005371,236.016235 1063.052734,237.010437 
	C1076.000000,243.297882 1088.409912,244.496445 1101.599854,236.394287 
	C1112.895996,229.455460 1120.896729,220.569885 1124.887695,208.153305 
	C1129.149902,194.893173 1129.210083,181.194855 1126.691772,167.706238 
	C1124.993652,158.610779 1121.129150,150.228455 1114.688599,143.013687 
	C1103.897461,130.925583 1090.882568,129.582245 1076.623535,134.263809 
	C1068.708008,136.862625 1061.146484,140.539932 1053.418945,143.733826 
	C1049.467285,133.296432 1047.437988,130.570740 1031.311035,134.599960 
	C1031.311035,181.288025 1031.311035,227.976105 1031.311035,274.834839 
	C1039.412598,274.834839 1047.205078,274.834839 1055.806396,274.533630 
	C1055.932983,261.026947 1056.059570,247.520279 1056.905151,234.039780 
M942.980408,201.096603 
	C943.316040,189.230927 943.499207,177.358231 944.045837,165.502289 
	C944.362610,158.631653 948.530701,154.638138 955.022766,152.954269 
	C961.571594,151.255707 967.944702,150.751099 973.397766,155.933792 
	C978.329651,160.621277 979.206787,166.662933 979.026917,173.946579 
	C979.017700,194.598190 978.990295,215.249847 979.042175,235.901306 
	C979.045471,237.212921 979.665039,238.522995 980.926392,239.972778 
	C988.526306,239.972778 996.126282,239.972778 1003.463623,239.972778 
	C1004.016846,234.416672 1005.001709,229.502640 1004.908203,224.609207 
	C1004.487488,202.584335 1006.675842,180.471985 1002.985168,158.551056 
	C1000.920044,146.285522 994.550049,137.334900 982.260986,133.754745 
	C968.093079,129.627197 954.794678,131.631195 942.832397,140.663239 
	C939.495361,143.182755 936.167725,145.714752 932.627380,148.399078 
	C931.547485,146.957367 930.823914,145.874329 929.984863,144.889740 
	C923.641907,137.447525 916.795776,131.420258 905.885071,131.840454 
	C898.366943,132.129944 892.621582,135.925140 886.383972,139.041168 
	C883.597229,140.433365 880.609863,141.424103 877.557800,142.660126 
	C875.659973,133.511505 868.785461,130.272614 855.308228,134.823334 
	C855.308228,169.804947 855.308228,204.732269 855.308228,239.632233 
	C863.676575,239.632233 871.732056,239.632233 879.999939,239.632233 
	C879.999939,216.945084 880.293640,194.619751 879.905029,172.306290 
	C879.605164,155.089645 891.296875,150.265579 904.788208,152.239685 
	C908.924133,152.844849 913.208740,155.348251 914.107788,160.556686 
	C915.101868,166.315048 916.759094,172.069778 916.867676,177.849747 
	C917.221375,196.676361 917.000122,215.513763 917.000122,234.347015 
	C917.000122,236.117188 917.000061,237.887360 917.000061,239.833069 
	C925.738403,239.833069 933.871460,239.833069 942.804626,239.518341 
	C942.815430,227.021469 942.826233,214.524612 942.980408,201.096603 
M1332.087646,235.616638 
	C1337.314331,239.029648 1342.947876,240.274277 1349.264771,240.177444 
	C1354.000366,240.104858 1355.107422,238.666122 1355.092773,234.143005 
	C1354.941284,187.669525 1355.001953,141.195343 1354.990356,94.721359 
	C1354.989990,93.274368 1354.850342,91.827408 1354.773315,90.336121 
	C1347.051514,90.336121 1339.667114,90.336121 1331.885864,90.336121 
	C1331.885864,124.547272 1331.885864,158.424744 1331.885864,192.302216 
	C1331.516724,192.496170 1331.147461,192.690125 1330.778320,192.884079 
	C1324.853149,185.572388 1318.853149,178.319855 1313.020264,170.935272 
	C1304.115845,159.661880 1295.336426,148.290009 1286.486694,136.973358 
	C1277.336182,125.272041 1268.286011,113.489006 1258.937134,101.948143 
	C1255.729004,97.987946 1252.157593,94.075752 1248.030884,91.163940 
	C1241.851318,86.803551 1235.345093,89.751305 1229.311279,91.552124 
	C1229.311279,140.855957 1229.311279,189.759277 1229.311279,238.632767 
	C1237.346313,238.632767 1245.065063,238.632767 1253.185547,238.632767 
	C1253.185547,204.733353 1253.185547,171.199188 1253.185547,136.535904 
	C1256.919434,140.799164 1260.053101,144.112442 1262.886963,147.664871 
	C1269.905029,156.462402 1276.763184,165.387360 1283.727661,174.227936 
	C1293.126221,186.158142 1302.584229,198.041412 1311.978271,209.975220 
	C1318.544556,218.316635 1325.046265,226.708878 1332.087646,235.616638 
M641.603149,150.903671 
	C643.736023,142.765488 642.749268,134.743210 641.029663,126.657982 
	C636.703491,106.316376 623.481201,95.076530 607.067627,93.234184 
	C591.675110,91.506462 576.070435,91.665863 560.558716,91.005630 
	C559.062683,90.941948 557.559509,91.015518 556.066223,90.921227 
	C549.536682,90.508942 543.009460,90.058243 536.264526,89.606972 
	C536.264526,140.534042 536.264526,190.551834 536.264526,240.685211 
	C545.245911,240.685211 553.960022,240.685211 563.174927,240.685211 
	C563.174927,223.318085 563.174927,206.259491 563.174927,189.194626 
	C573.351562,188.438995 583.015991,187.482956 592.703674,187.065628 
	C603.514282,186.599945 613.625183,184.193604 622.673523,178.066086 
	C632.206482,171.610336 638.944153,163.197617 641.603149,150.903671 
M796.884033,134.351578 
	C788.791443,133.901077 780.631042,132.573257 772.621033,133.191895 
	C758.173584,134.307709 746.626892,141.583786 738.002319,153.132034 
	C728.640015,165.668015 726.482483,180.233566 728.193298,195.249176 
	C729.235352,204.395630 731.643616,213.499771 736.918152,221.379730 
	C748.068787,238.038589 772.997681,246.366989 794.077820,241.674759 
	C805.668152,239.094864 815.059509,233.725677 822.602051,224.863037 
	C830.295471,215.823135 832.601624,204.820724 832.832153,193.409103 
	C832.943481,187.899734 831.816101,182.336548 830.954224,176.844101 
	C830.023926,170.916046 829.765503,164.597733 827.421265,159.233032 
	C821.746277,146.246063 811.345581,138.282867 796.884033,134.351578 
M132.941345,207.443832 
	C126.658180,203.916748 119.875641,202.831299 112.986633,204.581238 
	C97.824890,208.432556 90.268761,221.366745 92.201111,235.654358 
	C93.601585,246.009369 100.576569,255.855774 112.368965,258.213379 
	C119.709259,259.680908 126.282860,257.987854 133.094818,256.441040 
	C135.594986,255.873306 137.200851,255.848511 139.332581,258.356628 
	C144.850021,264.848236 151.165054,270.665222 157.202057,276.711212 
	C167.264145,286.788300 169.351578,287.144806 164.950989,301.388977 
	C164.290680,303.526337 163.754807,305.961212 164.100784,308.106964 
	C165.898529,319.255890 172.814819,326.515045 182.825729,330.859497 
	C193.560349,335.518066 203.087372,331.698975 211.332291,324.961548 
	C220.890625,317.150940 221.487839,306.541962 218.771805,295.284424 
	C218.270981,293.208618 217.847137,290.030914 218.966202,288.817627 
	C228.641953,278.326935 238.608414,268.098694 248.712479,258.016968 
	C249.783310,256.948517 252.680023,256.508087 254.067764,257.168091 
	C259.937653,259.959625 265.837189,261.006439 272.077759,258.986145 
	C287.968231,253.841873 296.745148,240.284607 291.939636,223.876938 
	C287.611511,209.099289 272.545166,201.423462 257.817169,205.347382 
	C252.895676,206.658600 247.702988,209.814499 244.377380,213.641769 
	C237.962799,221.024017 235.112839,229.943878 239.034195,239.820007 
	C241.365662,245.691910 239.174927,250.309769 235.070007,254.419266 
	C229.614349,259.880981 223.791901,265.028595 218.788513,270.877045 
	C211.896759,278.932800 204.211914,281.714264 194.256973,277.072174 
	C192.936798,276.456543 190.824829,276.695679 189.395752,277.294098 
	C180.278610,281.111938 176.248291,281.232239 168.550659,273.108398 
	C163.051346,267.304626 157.627655,261.339752 151.514679,256.231201 
	C144.958496,250.752228 144.258560,244.833527 146.348969,236.957153 
	C149.407272,225.433868 144.606384,212.956863 132.941345,207.443832 
M1433.421997,241.999634 
	C1449.020508,241.687546 1462.460449,236.547729 1472.841919,224.537384 
	C1466.272949,212.627197 1462.966187,211.581619 1450.964111,217.514038 
	C1450.815796,217.587418 1450.694824,217.733765 1450.541504,217.776825 
	C1444.474731,219.481110 1438.492310,222.122833 1432.319946,222.687759 
	C1417.096680,224.081070 1403.760376,209.858398 1403.932251,193.574310 
	C1403.968628,190.116089 1405.054199,188.873886 1408.555786,188.939377 
	C1418.045654,189.116837 1427.543335,188.869659 1437.033569,189.036728 
	C1446.296875,189.199783 1455.569092,190.136475 1464.810791,189.855911 
	C1472.618286,189.618896 1475.465454,187.884766 1474.981323,179.606094 
	C1474.751709,175.681870 1474.672729,171.701981 1473.927979,167.863220 
	C1471.336182,154.503952 1464.268433,144.305038 1451.986694,137.995743 
	C1442.764648,133.258301 1433.270996,131.759323 1422.731079,132.767395 
	C1405.051514,134.458267 1391.712402,142.472763 1383.282593,157.642792 
	C1375.935669,170.863876 1375.253540,185.611664 1378.221191,200.204819 
	C1381.091187,214.318054 1388.562256,225.944275 1400.658447,234.056244 
	C1410.212280,240.463272 1421.050293,242.568924 1433.421997,241.999634 
M140.015106,66.527199 
	C130.335358,57.542004 117.151512,54.805946 105.316452,61.821968 
	C99.324608,65.374031 95.418953,70.210625 92.920097,76.418037 
	C91.129639,80.865715 90.978233,85.157028 92.772453,89.977203 
	C95.643578,97.690506 93.989532,104.700455 87.297020,110.301537 
	C82.233009,114.539696 76.594772,118.590950 72.952202,123.915749 
	C66.912659,132.744492 59.386841,134.677841 49.910385,131.888107 
	C40.152580,129.015549 32.254211,132.573593 26.156824,139.590485 
	C18.998865,147.827896 15.787992,157.605042 20.208374,168.397568 
	C25.621752,181.614548 37.150444,187.620712 51.032967,186.082443 
	C63.967808,184.649185 79.284081,168.688889 73.534035,154.141861 
	C70.655052,146.858337 72.275253,140.533371 77.386467,135.257324 
	C84.182861,128.241760 91.391129,121.615059 98.591858,115.005875 
	C101.912514,111.957993 105.615578,109.972656 110.582352,111.773224 
	C115.941086,113.715904 121.347092,113.687370 127.122169,112.284035 
	C132.528580,110.970284 137.979904,111.824989 142.403580,116.717461 
	C149.135162,124.162430 156.490372,131.047165 163.647888,138.101700 
	C166.764221,141.173203 167.809067,144.350296 166.203796,148.757187 
	C164.889252,152.365921 163.817764,156.461655 164.156250,160.204224 
	C165.526611,175.356033 179.416214,188.436661 195.294388,186.093201 
	C212.234604,183.593002 222.759445,168.985870 219.887299,153.119171 
	C217.504364,139.955032 203.181641,126.395309 187.096497,132.264542 
	C181.446976,134.325974 175.364258,133.876572 170.570602,129.059219 
	C163.052246,121.503708 155.506500,113.975464 147.973816,106.434196 
	C144.738495,103.195198 143.631775,99.781609 145.284363,95.054161 
	C146.665115,91.104317 146.797958,86.669876 147.156311,82.422432 
	C147.681961,76.192245 143.614334,71.801468 140.015106,66.527199 
M181.111755,60.393383 
	C165.450363,66.531189 160.467178,87.141479 168.802948,100.560280 
	C174.177429,109.212013 187.271927,115.756889 195.526459,112.992256 
	C206.356659,109.364990 210.072723,110.587715 217.738297,119.135368 
	C222.396744,124.329865 227.270599,129.454727 232.690002,133.811996 
	C239.472900,139.265533 241.974869,146.021759 238.487122,153.927109 
	C237.055679,157.171600 237.206787,160.049011 238.578476,163.189499 
	C241.557068,170.008987 240.254532,176.227234 234.915939,181.574280 
	C228.443192,188.057327 221.716721,194.309097 215.564514,201.082809 
	C211.059372,206.043106 206.288391,206.699738 200.029419,205.240768 
	C195.208023,204.116898 189.783813,203.746140 184.981689,204.744080 
	C174.092133,207.007080 164.723969,218.897354 164.681549,232.054184 
	C164.624390,249.788849 182.147476,263.391083 198.831436,259.001282 
	C214.067230,254.992508 222.304611,241.492493 218.388855,226.718628 
	C216.533997,219.720444 217.626389,213.398163 223.293823,208.106613 
	C229.621094,202.199036 235.728195,196.038254 241.673660,189.744461 
	C246.741013,184.380219 252.148392,182.478714 259.277924,185.612564 
	C273.265625,191.761002 292.050476,177.134567 293.072418,161.429489 
	C293.594330,153.408447 291.013214,146.839828 286.303284,140.499664 
	C280.947601,133.290329 272.750580,129.534958 264.233978,131.961487 
	C253.828033,134.926346 245.198593,132.893417 237.920120,124.545334 
	C233.186264,119.115829 227.696671,114.352776 222.716400,109.128365 
	C218.201202,104.391846 216.639938,98.999763 219.092850,92.504005 
	C220.273849,89.376495 221.331955,85.688835 220.816605,82.519745 
	C217.953690,64.914078 199.323288,52.868782 181.111755,60.393383 
M91.458954,268.941223 
	C88.500534,265.921875 85.679665,262.751221 82.556831,259.912750 
	C74.518471,252.606339 68.840462,246.732880 73.663292,235.899368 
	C75.301910,232.218552 75.222740,229.171005 73.375153,225.668198 
	C70.429207,220.083008 71.507339,214.112701 76.034950,209.506104 
	C82.616615,202.809631 89.199898,196.109680 95.958122,189.593384 
	C101.295135,184.447418 107.547256,182.727417 114.904488,184.948975 
	C117.825523,185.830994 121.201591,186.421997 124.128700,185.867996 
	C141.369400,182.604950 150.375427,168.633835 146.555969,152.069077 
	C143.537384,138.977753 134.215179,129.553955 116.589264,131.131180 
	C103.016411,132.345718 87.435280,145.273788 92.896698,163.047699 
	C95.333351,170.977692 93.130325,177.734726 87.085426,183.479828 
	C80.805725,189.448074 74.750191,195.655548 68.684486,201.844498 
	C64.589005,206.023193 60.477203,208.362808 54.366085,205.270508 
	C49.357437,202.736069 43.392277,202.430206 38.270710,204.422760 
	C26.035772,209.182800 14.991489,221.965225 19.156090,237.609802 
	C21.847040,247.718536 27.176952,255.775208 38.774586,258.206543 
	C45.725174,259.663666 52.132942,258.671906 58.513718,256.648102 
	C61.682266,255.643097 63.763634,256.050781 65.977440,258.396118 
	C74.062088,266.961121 82.158051,275.520996 90.469612,283.863739 
	C94.226082,287.634308 94.463478,291.568298 93.341415,296.481354 
	C92.289062,301.089264 91.572929,306.068604 92.159889,310.700653 
	C93.875008,324.235657 108.844444,333.692413 120.642265,332.758545 
	C135.868057,331.553284 147.486359,319.190857 147.148010,303.078949 
	C146.859741,289.351196 131.602203,273.464783 116.648895,277.919922 
	C114.479477,278.566284 112.148361,278.689911 109.883690,278.992859 
	C101.638474,280.095795 96.850250,274.679260 91.458954,268.941223 
M1563.610352,133.838348 
	C1558.078003,135.833527 1554.725342,139.872528 1551.896851,144.950058 
	C1547.071655,153.612091 1541.604492,161.916595 1535.917114,171.168472 
	C1529.460693,160.978546 1524.130005,151.637527 1517.818604,143.014175 
	C1514.870483,138.986160 1510.432129,134.479248 1505.947632,133.502319 
	C1498.696411,131.922668 1490.849487,133.077362 1481.990356,133.077362 
	C1490.541016,145.287033 1498.180420,156.738968 1506.381714,167.773315 
	C1517.500610,182.733124 1517.312378,186.207214 1508.674927,199.560745 
	C1500.815674,211.711227 1492.318115,223.448441 1484.132080,235.388504 
	C1483.263550,236.655060 1482.598145,238.060852 1481.646118,239.741959 
	C1486.174438,239.967957 1490.005371,239.871902 1493.744141,240.412109 
	C1499.551758,241.251251 1505.032715,240.363724 1509.056519,236.218384 
	C1512.873779,232.285934 1515.889526,227.529404 1518.979858,222.947800 
	C1524.109863,215.342316 1529.017212,207.586746 1534.407349,199.296249 
	C1539.587646,207.623230 1544.108032,215.137955 1548.886963,222.484360 
	C1552.124756,227.461853 1554.863281,233.306808 1559.349731,236.812851 
	C1567.873413,243.473969 1578.246582,238.656586 1588.768188,240.284149 
	C1578.647705,224.650787 1569.295166,210.227036 1559.971191,195.784790 
	C1557.415161,191.825317 1552.929199,187.778976 1552.990845,183.829742 
	C1553.055054,179.718643 1557.537598,175.670502 1560.114624,171.611618 
	C1560.466431,171.057587 1561.024048,170.636948 1561.397705,170.093552 
	C1569.805298,157.864563 1578.200439,145.626984 1586.520996,133.503036 
	C1582.568726,132.976120 1578.994019,132.139709 1575.415283,132.121628 
	C1571.682983,132.102737 1567.946899,132.872574 1563.610352,133.838348 
M1755.534424,132.000381 
	C1750.688965,132.685349 1745.684082,132.815720 1741.026978,134.155579 
	C1724.746948,138.839447 1712.311646,150.382141 1716.035278,171.690125 
	C1718.268555,184.469772 1727.937134,189.873459 1738.822876,193.948868 
	C1745.802368,196.561859 1752.922974,198.898895 1759.637451,202.082458 
	C1763.972656,204.137863 1767.616699,207.605194 1766.959351,213.290161 
	C1766.402710,218.103989 1761.936035,221.513535 1756.354736,223.115280 
	C1748.553833,225.354034 1741.340698,223.286438 1734.411621,220.598694 
	C1719.694580,214.890076 1720.094482,216.183884 1713.163208,229.484207 
	C1713.033325,229.733337 1713.146973,230.109344 1713.146973,230.577332 
	C1715.421387,232.037827 1717.647949,233.698090 1720.072510,234.985443 
	C1731.724854,241.172165 1743.918457,243.939240 1757.272217,242.129913 
	C1768.309204,240.634491 1778.190186,237.485046 1785.165283,228.304321 
	C1796.263672,213.696518 1795.418579,189.757431 1772.793579,181.878662 
	C1764.225220,178.894958 1755.736938,175.615082 1747.428101,171.977097 
	C1742.257446,169.713074 1739.933594,164.889313 1740.989380,160.812698 
	C1742.439575,155.213455 1746.595825,152.394684 1752.411743,151.914749 
	C1761.178711,151.191284 1769.177490,154.159058 1777.451172,156.028931 
	C1779.623901,156.519974 1782.827026,156.088821 1784.384766,154.733765 
	C1786.290283,153.076065 1787.326172,150.098282 1788.026001,147.499512 
	C1788.421875,146.029495 1787.956421,143.321335 1786.911377,142.626968 
	C1777.706665,136.510529 1767.841675,132.009811 1755.534424,132.000381 
M1180.000000,205.424713 
	C1180.000000,188.126419 1180.000000,170.828125 1180.000000,153.296356 
	C1188.400391,152.166290 1196.476318,151.172226 1204.508667,149.903183 
	C1205.764038,149.704849 1207.736328,148.329224 1207.814209,147.371017 
	C1208.170654,142.984451 1207.970825,138.552704 1207.970825,133.807678 
	C1197.937256,133.807678 1188.666138,133.807678 1179.000000,133.807678 
	C1179.000000,126.159225 1179.000000,118.865402 1179.000000,111.571579 
	C1179.000000,100.920265 1178.993286,101.172623 1168.285522,100.889099 
	C1163.266479,100.756195 1161.018921,103.226974 1160.084839,107.395973 
	C1158.840698,112.947617 1157.854492,118.568359 1157.023193,124.198639 
	C1155.744263,132.859436 1155.507446,133.096603 1146.920410,135.104050 
	C1143.976318,135.792358 1140.236084,136.365692 1138.529785,138.395493 
	C1134.608887,143.060043 1138.619141,151.008728 1144.863403,151.987778 
	C1147.837891,152.454163 1150.823486,152.850113 1154.000000,153.306122 
	C1154.000000,174.210449 1153.834351,194.860901 1154.076782,215.506561 
	C1154.182617,224.514343 1157.449341,232.395172 1165.268188,237.630951 
	C1173.661133,243.251099 1183.317505,243.015396 1192.486694,241.491013 
	C1198.950317,240.416458 1205.664429,237.854340 1210.136841,232.176270 
	C1208.991699,229.960938 1208.083740,228.051758 1207.042603,226.218079 
	C1203.313354,219.649490 1198.946411,217.970978 1191.868652,219.992661 
	C1190.339722,220.429382 1188.419189,220.417389 1186.926514,219.899170 
	C1180.431641,217.644302 1179.172852,212.510681 1180.000000,205.424713 
M713.339478,156.999878 
	C716.741699,157.221313 720.285278,157.360062 720.906006,152.874176 
	C721.513245,148.485992 721.811523,144.037689 721.941589,139.606888 
	C722.030273,136.588699 720.893494,134.379242 717.351624,133.692093 
	C711.057251,132.470932 704.966736,132.159546 699.469788,136.073303 
	C693.928833,140.018387 688.520264,144.149460 683.162537,148.118454 
	C682.433350,145.777145 681.739258,143.092728 680.764160,140.514618 
	C678.856567,135.471100 674.257751,133.245407 668.916687,134.544495 
	C667.807800,134.814224 666.630981,135.039795 665.506042,134.967102 
	C661.261597,134.692825 659.885925,136.461029 659.908875,140.789520 
	C660.077759,172.620697 659.997131,204.453171 660.010071,236.285248 
	C660.010620,237.732269 660.155579,239.179230 660.234863,240.655853 
	C668.291687,240.655853 676.012085,240.655853 683.999939,240.655853 
	C683.999939,238.499771 683.999939,236.686050 683.999939,234.872330 
	C683.999939,217.039703 683.810425,199.204178 684.081299,181.375671 
	C684.213501,172.670792 687.022888,164.469955 695.362000,160.569107 
	C700.481506,158.174362 706.691223,158.110428 713.339478,156.999878 
M292.993988,81.949623 
	C292.363953,80.119240 291.709137,78.296967 291.107849,76.457191 
	C285.945923,60.663528 269.419128,54.587189 255.828979,59.200424 
	C245.559494,62.686440 234.180878,74.797241 238.081543,92.308525 
	C242.462891,111.977814 263.654175,119.429741 279.501282,109.881477 
	C289.524750,103.842087 293.818146,94.513222 292.993988,81.949623 
M74.006874,305.916382 
	C75.321030,296.772980 71.377823,289.945618 64.696434,284.161346 
	C53.294319,274.290222 39.739929,274.634369 28.714893,284.049255 
	C16.013126,294.896027 15.234118,313.930450 27.997084,325.612274 
	C35.340714,332.333771 47.126701,335.073822 56.190464,331.345825 
	C67.076698,326.868256 73.935898,317.403961 74.006874,305.916382 
M238.886307,313.483398 
	C240.788925,321.106598 245.931976,325.992401 252.396179,329.943268 
	C261.672791,335.613037 279.110168,333.084747 285.706299,324.666748 
	C296.983307,310.274994 294.870605,293.311981 281.763092,282.462006 
	C269.654175,272.438629 253.153320,276.668243 244.077423,286.923340 
	C237.525986,294.325989 235.673874,303.190155 238.886307,313.483398 
M27.507687,106.004295 
	C32.109306,111.206886 38.067463,113.919670 44.826717,113.911835 
	C62.313499,113.891556 76.440826,100.558975 74.004425,82.279587 
	C71.620728,64.395592 57.313194,55.473370 40.957157,58.308933 
	C28.898298,60.399521 22.136921,69.233971 19.558004,80.968590 
	C17.483147,90.409630 19.266455,98.917046 27.507687,106.004295 
M401.000366,12.814992 
	C401.000366,127.466934 401.000366,242.118881 401.000366,356.770813 
	C401.459534,356.768402 401.918701,356.765991 402.377869,356.763580 
	C402.377869,240.917847 402.377869,125.072113 402.377869,9.226374 
	C402.064728,9.209345 401.751617,9.192316 401.438477,9.175288 
	C401.293121,10.077365 401.147736,10.979443 401.000366,12.814992 
z"/>
<path fill="#E87425" opacity="1.000000" stroke="none" 
	d="
M1331.832275,235.347534 
	C1325.046265,226.708878 1318.544556,218.316635 1311.978271,209.975220 
	C1302.584229,198.041412 1293.126221,186.158142 1283.727661,174.227936 
	C1276.763184,165.387360 1269.905029,156.462402 1262.886963,147.664871 
	C1260.053101,144.112442 1256.919434,140.799164 1253.185547,136.535904 
	C1253.185547,171.199188 1253.185547,204.733353 1253.185547,238.632767 
	C1245.065063,238.632767 1237.346313,238.632767 1229.311279,238.632767 
	C1229.311279,189.759277 1229.311279,140.855957 1229.311279,91.552124 
	C1235.345093,89.751305 1241.851318,86.803551 1248.030884,91.163940 
	C1252.157593,94.075752 1255.729004,97.987946 1258.937134,101.948143 
	C1268.286011,113.489006 1277.336182,125.272041 1286.486694,136.973358 
	C1295.336426,148.290009 1304.115845,159.661880 1313.020264,170.935272 
	C1318.853149,178.319855 1324.853149,185.572388 1330.778320,192.884079 
	C1331.147461,192.690125 1331.516724,192.496170 1331.885864,192.302216 
	C1331.885864,158.424744 1331.885864,124.547272 1331.885864,90.336121 
	C1339.667114,90.336121 1347.051514,90.336121 1354.773315,90.336121 
	C1354.850342,91.827408 1354.989990,93.274368 1354.990356,94.721359 
	C1355.001953,141.195343 1354.941284,187.669525 1355.092773,234.143005 
	C1355.107422,238.666122 1354.000366,240.104858 1349.264771,240.177444 
	C1342.947876,240.274277 1337.314331,239.029648 1331.832275,235.347534 
z"/>
<path fill="#E97527" opacity="1.000000" stroke="none" 
	d="
M942.004517,239.833069 
	C933.871460,239.833069 925.738403,239.833069 917.000061,239.833069 
	C917.000061,237.887360 917.000122,236.117188 917.000122,234.347015 
	C917.000122,215.513763 917.221375,196.676361 916.867676,177.849747 
	C916.759094,172.069778 915.101868,166.315048 914.107788,160.556686 
	C913.208740,155.348251 908.924133,152.844849 904.788208,152.239685 
	C891.296875,150.265579 879.605164,155.089645 879.905029,172.306290 
	C880.293640,194.619751 879.999939,216.945084 879.999939,239.632233 
	C871.732056,239.632233 863.676575,239.632233 855.308228,239.632233 
	C855.308228,204.732269 855.308228,169.804947 855.308228,134.823334 
	C868.785461,130.272614 875.659973,133.511505 877.557800,142.660126 
	C880.609863,141.424103 883.597229,140.433365 886.383972,139.041168 
	C892.621582,135.925140 898.366943,132.129944 905.885071,131.840454 
	C916.795776,131.420258 923.641907,137.447525 929.984863,144.889740 
	C930.823914,145.874329 931.547485,146.957367 932.627380,148.399078 
	C936.167725,145.714752 939.495361,143.182755 942.832397,140.663239 
	C954.794678,131.631195 968.093079,129.627197 982.260986,133.754745 
	C994.550049,137.334900 1000.920044,146.285522 1002.985168,158.551056 
	C1006.675842,180.471985 1004.487488,202.584335 1004.908203,224.609207 
	C1005.001709,229.502640 1004.016846,234.416672 1003.463623,239.972778 
	C996.126282,239.972778 988.526306,239.972778 980.462585,239.445190 
	C979.998291,219.226120 980.024658,199.534561 979.960693,179.843292 
	C979.953308,177.568451 979.443726,175.295242 979.166931,173.021286 
	C979.206787,166.662933 978.329651,160.621277 973.397766,155.933792 
	C967.944702,150.751099 961.571594,151.255707 955.022766,152.954269 
	C948.530701,154.638138 944.362610,158.631653 944.045837,165.502289 
	C943.499207,177.358231 943.316040,189.230927 942.740356,201.934998 
	C942.335083,215.126602 942.169800,227.479843 942.004517,239.833069 
z"/>
<path fill="#E97527" opacity="1.000000" stroke="none" 
	d="
M641.354126,151.253036 
	C638.944153,163.197617 632.206482,171.610336 622.673523,178.066086 
	C613.625183,184.193604 603.514282,186.599945 592.703674,187.065628 
	C583.015991,187.482956 573.351562,188.438995 563.174927,189.194626 
	C563.174927,206.259491 563.174927,223.318085 563.174927,240.685211 
	C553.960022,240.685211 545.245911,240.685211 536.264526,240.685211 
	C536.264526,190.551834 536.264526,140.534042 536.264526,89.606972 
	C543.009460,90.058243 549.536682,90.508942 556.066223,90.921227 
	C557.559509,91.015518 559.062683,90.941948 560.558716,91.005630 
	C576.070435,91.665863 591.675110,91.506462 607.067627,93.234184 
	C623.481201,95.076530 636.703491,106.316376 641.029663,126.657982 
	C642.749268,134.743210 643.736023,142.765488 641.354126,151.253036 
M577.501343,166.000153 
	C581.492065,165.999954 585.497742,166.224991 589.470764,165.959595 
	C604.636841,164.946487 614.080750,155.685486 614.942200,140.025375 
	C615.441711,130.945999 610.668213,123.899773 604.906128,117.490059 
	C604.147888,116.646606 602.676514,116.241287 601.467468,116.038559 
	C593.128662,114.640236 584.785339,113.253937 576.415039,112.064064 
	C572.116394,111.453003 567.759216,111.254272 563.311584,110.858818 
	C563.311584,129.617828 563.311584,147.642487 563.311584,166.000153 
	C567.915405,166.000153 572.211182,166.000153 577.501343,166.000153 
z"/>
<path fill="#E97528" opacity="1.000000" stroke="none" 
	d="
M1054.997559,274.834839 
	C1047.205078,274.834839 1039.412598,274.834839 1031.311035,274.834839 
	C1031.311035,227.976105 1031.311035,181.288025 1031.316895,134.599609 
	C1047.437988,130.570740 1049.467285,133.296432 1053.418945,143.733826 
	C1061.146484,140.539932 1068.708008,136.862625 1076.623535,134.263809 
	C1090.882568,129.582245 1103.897461,130.925583 1114.688599,143.013687 
	C1121.129150,150.228455 1124.993652,158.610779 1126.691772,167.706238 
	C1129.210083,181.194855 1129.149902,194.893173 1124.887695,208.153305 
	C1120.896729,220.569885 1112.895996,229.455460 1101.599854,236.394287 
	C1088.409912,244.496445 1076.000000,243.297882 1063.052734,237.010437 
	C1061.005371,236.016235 1058.954468,235.029816 1056.314209,234.372864 
	C1055.478760,236.652832 1055.033447,238.598587 1055.022461,240.546768 
	C1054.958008,251.975800 1054.994873,263.405426 1054.997559,274.834839 
M1089.183960,154.040787 
	C1085.453979,153.030197 1081.496216,150.662811 1078.033447,151.244171 
	C1063.133423,153.745819 1055.681152,158.702759 1055.057373,176.249741 
	C1054.732056,185.398590 1055.244385,194.576920 1054.929443,203.726501 
	C1054.629761,212.434052 1058.323242,217.977448 1066.383667,221.144745 
	C1079.027954,226.113327 1095.036865,221.482513 1097.590576,207.165619 
	C1099.430420,196.850845 1099.035400,186.051041 1098.819458,175.484268 
	C1098.656250,167.505600 1097.818604,159.286270 1089.183960,154.040787 
z"/>
<path fill="#E87426" opacity="1.000000" stroke="none" 
	d="
M797.209717,134.618683 
	C811.345581,138.282867 821.746277,146.246063 827.421265,159.233032 
	C829.765503,164.597733 830.023926,170.916046 830.954224,176.844101 
	C831.816101,182.336548 832.943481,187.899734 832.832153,193.409103 
	C832.601624,204.820724 830.295471,215.823135 822.602051,224.863037 
	C815.059509,233.725677 805.668152,239.094864 794.077820,241.674759 
	C772.997681,246.366989 748.068787,238.038589 736.918152,221.379730 
	C731.643616,213.499771 729.235352,204.395630 728.193298,195.249176 
	C726.482483,180.233566 728.640015,165.668015 738.002319,153.132034 
	C746.626892,141.583786 758.173584,134.307709 772.621033,133.191895 
	C780.631042,132.573257 788.791443,133.901077 797.209717,134.618683 
M797.950256,217.539795 
	C802.929443,213.088715 805.862732,207.591858 805.977661,200.862061 
	C806.111633,193.019653 806.484619,185.136490 805.891052,177.336670 
	C804.925598,164.651245 800.690491,155.802673 786.869629,152.497192 
	C775.756714,149.839401 761.595703,155.342453 757.707825,167.819092 
	C754.179260,179.142410 753.697754,190.833313 756.113220,202.367294 
	C760.159790,221.689789 782.723877,230.077118 797.950256,217.539795 
z"/>
<path fill="#E9782C" opacity="1.000000" stroke="none" 
	d="
M133.243652,207.679474 
	C144.606384,212.956863 149.407272,225.433868 146.348969,236.957153 
	C144.258560,244.833527 144.958496,250.752228 151.514679,256.231201 
	C157.627655,261.339752 163.051346,267.304626 168.550659,273.108398 
	C176.248291,281.232239 180.278610,281.111938 189.395752,277.294098 
	C190.824829,276.695679 192.936798,276.456543 194.256973,277.072174 
	C204.211914,281.714264 211.896759,278.932800 218.788513,270.877045 
	C223.791901,265.028595 229.614349,259.880981 235.070007,254.419266 
	C239.174927,250.309769 241.365662,245.691910 239.034195,239.820007 
	C235.112839,229.943878 237.962799,221.024017 244.377380,213.641769 
	C247.702988,209.814499 252.895676,206.658600 257.817169,205.347382 
	C272.545166,201.423462 287.611511,209.099289 291.939636,223.876938 
	C296.745148,240.284607 287.968231,253.841873 272.077759,258.986145 
	C265.837189,261.006439 259.937653,259.959625 254.067764,257.168091 
	C252.680023,256.508087 249.783310,256.948517 248.712479,258.016968 
	C238.608414,268.098694 228.641953,278.326935 218.966202,288.817627 
	C217.847137,290.030914 218.270981,293.208618 218.771805,295.284424 
	C221.487839,306.541962 220.890625,317.150940 211.332291,324.961548 
	C203.087372,331.698975 193.560349,335.518066 182.825729,330.859497 
	C172.814819,326.515045 165.898529,319.255890 164.100784,308.106964 
	C163.754807,305.961212 164.290680,303.526337 164.950989,301.388977 
	C169.351578,287.144806 167.264145,286.788300 157.202057,276.711212 
	C151.165054,270.665222 144.850021,264.848236 139.332581,258.356628 
	C137.200851,255.848511 135.594986,255.873306 133.094818,256.441040 
	C126.282860,257.987854 119.709259,259.680908 112.368965,258.213379 
	C100.576569,255.855774 93.601585,246.009369 92.201111,235.654358 
	C90.268761,221.366745 97.824890,208.432556 112.986633,204.581238 
	C119.875641,202.831299 126.658180,203.916748 133.243652,207.679474 
M264.665405,248.000290 
	C268.841827,248.690140 272.321442,247.113098 275.614258,244.751129 
	C280.649445,241.139328 283.594818,232.699097 281.656738,227.191437 
	C279.446381,220.910049 271.907837,214.745773 266.313629,215.040482 
	C256.475555,215.558762 250.441727,221.289505 249.947388,226.362900 
	C248.907547,237.034683 254.398804,247.990997 264.665405,248.000290 
M117.952553,216.575272 
	C115.629326,217.232620 112.857475,217.297272 111.064102,218.654663 
	C104.826584,223.375778 103.058426,230.380478 104.211845,237.575150 
	C105.260468,244.116119 110.955467,246.589828 116.909462,247.908646 
	C123.069099,249.273026 133.811783,244.537155 134.676193,239.483215 
	C135.831131,232.730576 135.353485,225.616302 129.926620,220.779175 
	C127.057434,218.221771 122.458321,217.605240 117.952553,216.575272 
M200.887146,291.390747 
	C194.967163,288.723297 189.149750,287.470734 183.518341,292.170471 
	C175.739624,298.662231 172.269913,309.042847 181.463867,317.011414 
	C187.941956,322.626068 194.017868,318.757477 200.391479,316.950745 
	C206.631699,315.181854 207.818115,310.033417 207.747696,305.165375 
	C207.676376,300.236023 207.388977,294.485474 200.887146,291.390747 
z"/>
<path fill="#E97426" opacity="1.000000" stroke="none" 
	d="
M1432.937988,241.999634 
	C1421.050293,242.568924 1410.212280,240.463272 1400.658447,234.056244 
	C1388.562256,225.944275 1381.091187,214.318054 1378.221191,200.204819 
	C1375.253540,185.611664 1375.935669,170.863876 1383.282593,157.642792 
	C1391.712402,142.472763 1405.051514,134.458267 1422.731079,132.767395 
	C1433.270996,131.759323 1442.764648,133.258301 1451.986694,137.995743 
	C1464.268433,144.305038 1471.336182,154.503952 1473.927979,167.863220 
	C1474.672729,171.701981 1474.751709,175.681870 1474.981323,179.606094 
	C1475.465454,187.884766 1472.618286,189.618896 1464.810791,189.855911 
	C1455.569092,190.136475 1446.296875,189.199783 1437.033569,189.036728 
	C1427.543335,188.869659 1418.045654,189.116837 1408.555786,188.939377 
	C1405.054199,188.873886 1403.968628,190.116089 1403.932251,193.574310 
	C1403.760376,209.858398 1417.096680,224.081070 1432.319946,222.687759 
	C1438.492310,222.122833 1444.474731,219.481110 1450.541504,217.776825 
	C1450.694824,217.733765 1450.815796,217.587418 1450.964111,217.514038 
	C1462.966187,211.581619 1466.272949,212.627197 1472.841919,224.537384 
	C1462.460449,236.547729 1449.020508,241.687546 1432.937988,241.999634 
M1409.439331,159.062271 
	C1408.383057,160.499832 1407.135864,161.835709 1406.306030,163.393860 
	C1403.748535,168.195755 1406.275879,174.812973 1410.967163,174.902466 
	C1424.195557,175.154816 1437.432129,174.990646 1450.559448,174.990646 
	C1452.554810,164.319489 1443.965210,151.074203 1434.332642,150.073395 
	C1424.984619,149.102142 1416.363159,150.765976 1409.439331,159.062271 
z"/>
<path fill="#E9782D" opacity="1.000000" stroke="none" 
	d="
M140.275009,66.787018 
	C143.614334,71.801468 147.681961,76.192245 147.156311,82.422432 
	C146.797958,86.669876 146.665115,91.104317 145.284363,95.054161 
	C143.631775,99.781609 144.738495,103.195198 147.973816,106.434196 
	C155.506500,113.975464 163.052246,121.503708 170.570602,129.059219 
	C175.364258,133.876572 181.446976,134.325974 187.096497,132.264542 
	C203.181641,126.395309 217.504364,139.955032 219.887299,153.119171 
	C222.759445,168.985870 212.234604,183.593002 195.294388,186.093201 
	C179.416214,188.436661 165.526611,175.356033 164.156250,160.204224 
	C163.817764,156.461655 164.889252,152.365921 166.203796,148.757187 
	C167.809067,144.350296 166.764221,141.173203 163.647888,138.101700 
	C156.490372,131.047165 149.135162,124.162430 142.403580,116.717461 
	C137.979904,111.824989 132.528580,110.970284 127.122169,112.284035 
	C121.347092,113.687370 115.941086,113.715904 110.582352,111.773224 
	C105.615578,109.972656 101.912514,111.957993 98.591858,115.005875 
	C91.391129,121.615059 84.182861,128.241760 77.386467,135.257324 
	C72.275253,140.533371 70.655052,146.858337 73.534035,154.141861 
	C79.284081,168.688889 63.967808,184.649185 51.032967,186.082443 
	C37.150444,187.620712 25.621752,181.614548 20.208374,168.397568 
	C15.787992,157.605042 18.998865,147.827896 26.156824,139.590485 
	C32.254211,132.573593 40.152580,129.015549 49.910385,131.888107 
	C59.386841,134.677841 66.912659,132.744492 72.952202,123.915749 
	C76.594772,118.590950 82.233009,114.539696 87.297020,110.301537 
	C93.989532,104.700455 95.643578,97.690506 92.772453,89.977203 
	C90.978233,85.157028 91.129639,80.865715 92.920097,76.418037 
	C95.418953,70.210625 99.324608,65.374031 105.316452,61.821968 
	C117.151512,54.805946 130.335358,57.542004 140.275009,66.787018 
M103.010323,87.238907 
	C103.337540,88.321106 103.794952,89.382576 103.971077,90.488831 
	C105.223289,98.354164 111.437325,102.948074 122.586128,102.004166 
	C127.840706,101.559296 135.698441,92.938286 135.999512,87.217819 
	C136.453003,78.601036 129.696915,70.317383 121.956985,70.000221 
	C109.703110,69.498108 103.338493,74.998291 103.010323,87.238907 
M43.514442,174.998703 
	C45.041557,175.130569 46.583363,175.467743 48.093304,175.359680 
	C55.674400,174.817184 59.111965,169.286835 61.779831,163.288574 
	C64.210213,157.824280 62.259350,149.934662 58.237843,146.755798 
	C52.612907,142.309494 42.696995,141.512299 37.584492,144.908691 
	C32.188885,148.493149 29.980038,154.036316 30.260406,159.840942 
	C30.626904,167.428665 34.548294,173.227478 43.514442,174.998703 
M190.810486,142.008759 
	C176.445084,144.931839 172.908615,157.193588 178.860382,166.706482 
	C183.327499,173.846420 191.430756,177.244080 198.485672,174.165115 
	C206.156677,170.817276 208.837570,164.387680 206.990799,153.767273 
	C205.812851,146.993057 199.620285,142.241821 190.810486,142.008759 
z"/>
<path fill="#E9782C" opacity="1.000000" stroke="none" 
	d="
M181.468292,60.215378 
	C199.323288,52.868782 217.953690,64.914078 220.816605,82.519745 
	C221.331955,85.688835 220.273849,89.376495 219.092850,92.504005 
	C216.639938,98.999763 218.201202,104.391846 222.716400,109.128365 
	C227.696671,114.352776 233.186264,119.115829 237.920120,124.545334 
	C245.198593,132.893417 253.828033,134.926346 264.233978,131.961487 
	C272.750580,129.534958 280.947601,133.290329 286.303284,140.499664 
	C291.013214,146.839828 293.594330,153.408447 293.072418,161.429489 
	C292.050476,177.134567 273.265625,191.761002 259.277924,185.612564 
	C252.148392,182.478714 246.741013,184.380219 241.673660,189.744461 
	C235.728195,196.038254 229.621094,202.199036 223.293823,208.106613 
	C217.626389,213.398163 216.533997,219.720444 218.388855,226.718628 
	C222.304611,241.492493 214.067230,254.992508 198.831436,259.001282 
	C182.147476,263.391083 164.624390,249.788849 164.681549,232.054184 
	C164.723969,218.897354 174.092133,207.007080 184.981689,204.744080 
	C189.783813,203.746140 195.208023,204.116898 200.029419,205.240768 
	C206.288391,206.699738 211.059372,206.043106 215.564514,201.082809 
	C221.716721,194.309097 228.443192,188.057327 234.915939,181.574280 
	C240.254532,176.227234 241.557068,170.008987 238.578476,163.189499 
	C237.206787,160.049011 237.055679,157.171600 238.487122,153.927109 
	C241.974869,146.021759 239.472900,139.265533 232.690002,133.811996 
	C227.270599,129.454727 222.396744,124.329865 217.738297,119.135368 
	C210.072723,110.587715 206.356659,109.364990 195.526459,112.992256 
	C187.271927,115.756889 174.177429,109.212013 168.802948,100.560280 
	C160.467178,87.141479 165.450363,66.531189 181.468292,60.215378 
M205.503952,76.009384 
	C204.859009,75.086510 204.391907,73.931999 203.540390,73.278152 
	C197.769287,68.846756 189.818848,67.788139 181.720123,74.735558 
	C176.468140,79.240921 174.373169,87.815735 177.423096,93.882935 
	C180.124054,99.255936 189.512360,103.757126 195.155594,102.384727 
	C207.207245,99.453835 212.263031,87.460953 205.503952,76.009384 
M177.244064,236.786407 
	C178.777130,238.306686 180.168777,240.010742 181.866425,241.317139 
	C192.089920,249.184341 192.573105,249.870956 200.664642,245.037140 
	C211.404175,238.621384 213.715057,226.656143 201.891907,219.393021 
	C195.797531,215.649200 186.631042,215.284927 181.954544,218.533783 
	C177.233505,221.813599 174.544434,230.610306 177.244064,236.786407 
M281.000244,158.603333 
	C280.252136,149.680481 275.144653,144.307693 266.181366,143.806961 
	C260.662231,143.498672 254.927795,144.173508 251.458954,149.206451 
	C247.587585,154.823380 248.659363,161.196350 251.120010,166.892822 
	C253.946762,173.436829 261.790100,176.549881 268.510742,174.784012 
	C274.382263,173.241257 280.882324,165.266281 281.000244,158.603333 
z"/>
<path fill="#E9792D" opacity="1.000000" stroke="none" 
	d="
M91.713760,269.195923 
	C96.850250,274.679260 101.638474,280.095795 109.883690,278.992859 
	C112.148361,278.689911 114.479477,278.566284 116.648895,277.919922 
	C131.602203,273.464783 146.859741,289.351196 147.148010,303.078949 
	C147.486359,319.190857 135.868057,331.553284 120.642265,332.758545 
	C108.844444,333.692413 93.875008,324.235657 92.159889,310.700653 
	C91.572929,306.068604 92.289062,301.089264 93.341415,296.481354 
	C94.463478,291.568298 94.226082,287.634308 90.469612,283.863739 
	C82.158051,275.520996 74.062088,266.961121 65.977440,258.396118 
	C63.763634,256.050781 61.682266,255.643097 58.513718,256.648102 
	C52.132942,258.671906 45.725174,259.663666 38.774586,258.206543 
	C27.176952,255.775208 21.847040,247.718536 19.156090,237.609802 
	C14.991489,221.965225 26.035772,209.182800 38.270710,204.422760 
	C43.392277,202.430206 49.357437,202.736069 54.366085,205.270508 
	C60.477203,208.362808 64.589005,206.023193 68.684486,201.844498 
	C74.750191,195.655548 80.805725,189.448074 87.085426,183.479828 
	C93.130325,177.734726 95.333351,170.977692 92.896698,163.047699 
	C87.435280,145.273788 103.016411,132.345718 116.589264,131.131180 
	C134.215179,129.553955 143.537384,138.977753 146.555969,152.069077 
	C150.375427,168.633835 141.369400,182.604950 124.128700,185.867996 
	C121.201591,186.421997 117.825523,185.830994 114.904488,184.948975 
	C107.547256,182.727417 101.295135,184.447418 95.958122,189.593384 
	C89.199898,196.109680 82.616615,202.809631 76.034950,209.506104 
	C71.507339,214.112701 70.429207,220.083008 73.375153,225.668198 
	C75.222740,229.171005 75.301910,232.218552 73.663292,235.899368 
	C68.840462,246.732880 74.518471,252.606339 82.556831,259.912750 
	C85.679665,262.751221 88.500534,265.921875 91.713760,269.195923 
M135.138779,309.394012 
	C138.102844,302.609009 133.308868,291.517639 126.397896,289.684601 
	C116.442818,287.044159 106.728508,290.380707 104.020172,298.325348 
	C100.828598,307.687469 105.482849,317.529175 114.345993,320.723755 
	C122.567787,323.687195 131.800278,318.815002 135.138779,309.394012 
M107.543694,170.018890 
	C110.330307,174.481857 115.608040,176.263153 122.379303,175.026123 
	C131.126831,173.428055 133.954056,170.686478 135.803452,160.233978 
	C136.917969,153.934952 133.024506,148.887848 128.585281,145.503860 
	C121.966003,140.458038 113.009651,141.292389 105.782761,149.682388 
	C101.679680,154.445847 102.116371,163.639694 107.543694,170.018890 
M33.380070,241.878860 
	C33.974869,242.461456 34.570259,243.043442 35.164402,243.626694 
	C40.696541,249.057739 48.259144,249.600189 56.411942,245.150421 
	C60.826305,242.741104 63.112400,236.915573 61.944065,231.053299 
	C60.079407,221.697128 56.225483,217.805862 47.983532,216.967789 
	C42.780846,216.438736 37.893860,216.735306 35.009159,222.079315 
	C31.707087,228.196548 28.865934,234.371109 33.380070,241.878860 
z"/>
<path fill="#E97628" opacity="1.000000" stroke="none" 
	d="
M1693.010864,239.833710 
	C1691.104126,240.222061 1689.210205,240.693985 1687.288574,240.984482 
	C1678.308350,242.342178 1671.715942,239.681641 1669.960938,230.663437 
	C1661.736450,234.552429 1654.194580,239.506058 1645.917847,241.758484 
	C1625.420166,247.336670 1607.120850,235.744904 1602.119873,214.976761 
	C1601.323730,211.670441 1601.062622,208.166687 1601.047485,204.752060 
	C1600.953613,183.437729 1601.000000,162.122757 1601.000000,140.807999 
	C1601.000000,139.024078 1601.000000,137.240158 1601.000000,135.232269 
	C1609.421875,135.232269 1617.352539,135.232269 1626.000000,135.232269 
	C1626.000000,136.988312 1626.000000,138.742249 1626.000000,140.496201 
	C1626.000000,159.979233 1625.894653,179.463287 1626.083862,198.944489 
	C1626.124390,203.123505 1626.552124,207.543991 1627.987183,211.413620 
	C1631.063843,219.710434 1640.275269,224.711609 1649.360962,222.863724 
	C1658.510986,221.002762 1668.301392,214.214478 1668.161255,202.300964 
	C1667.917358,181.560471 1668.669189,160.808304 1668.996216,140.060928 
	C1669.024658,138.254669 1669.000000,136.447586 1669.000000,134.027130 
	C1676.892944,134.027130 1684.487061,134.027130 1692.543823,134.554810 
	C1693.007935,169.999557 1693.009399,204.916626 1693.010864,239.833710 
z"/>
<path fill="#E97528" opacity="1.000000" stroke="none" 
	d="
M1563.911377,133.567963 
	C1567.946899,132.872574 1571.682983,132.102737 1575.415283,132.121628 
	C1578.994019,132.139709 1582.568726,132.976120 1586.520996,133.503036 
	C1578.200439,145.626984 1569.805298,157.864563 1561.397705,170.093552 
	C1561.024048,170.636948 1560.466431,171.057587 1560.114624,171.611618 
	C1557.537598,175.670502 1553.055054,179.718643 1552.990845,183.829742 
	C1552.929199,187.778976 1557.415161,191.825317 1559.971191,195.784790 
	C1569.295166,210.227036 1578.647705,224.650787 1588.768188,240.284149 
	C1578.246582,238.656586 1567.873413,243.473969 1559.349731,236.812851 
	C1554.863281,233.306808 1552.124756,227.461853 1548.886963,222.484360 
	C1544.108032,215.137955 1539.587646,207.623230 1534.407349,199.296249 
	C1529.017212,207.586746 1524.109863,215.342316 1518.979858,222.947800 
	C1515.889526,227.529404 1512.873779,232.285934 1509.056519,236.218384 
	C1505.032715,240.363724 1499.551758,241.251251 1493.744141,240.412109 
	C1490.005371,239.871902 1486.174438,239.967957 1481.646118,239.741959 
	C1482.598145,238.060852 1483.263550,236.655060 1484.132080,235.388504 
	C1492.318115,223.448441 1500.815674,211.711227 1508.674927,199.560745 
	C1517.312378,186.207214 1517.500610,182.733124 1506.381714,167.773315 
	C1498.180420,156.738968 1490.541016,145.287033 1481.990356,133.077362 
	C1490.849487,133.077362 1498.696411,131.922668 1505.947632,133.502319 
	C1510.432129,134.479248 1514.870483,138.986160 1517.818604,143.014175 
	C1524.130005,151.637527 1529.460693,160.978546 1535.917114,171.168472 
	C1541.604492,161.916595 1547.071655,153.612091 1551.896851,144.950058 
	C1554.725342,139.872528 1558.078003,135.833527 1563.911377,133.567963 
z"/>
<path fill="#E97528" opacity="1.000000" stroke="none" 
	d="
M1755.999390,132.000381 
	C1767.841675,132.009811 1777.706665,136.510529 1786.911377,142.626968 
	C1787.956421,143.321335 1788.421875,146.029495 1788.026001,147.499512 
	C1787.326172,150.098282 1786.290283,153.076065 1784.384766,154.733765 
	C1782.827026,156.088821 1779.623901,156.519974 1777.451172,156.028931 
	C1769.177490,154.159058 1761.178711,151.191284 1752.411743,151.914749 
	C1746.595825,152.394684 1742.439575,155.213455 1740.989380,160.812698 
	C1739.933594,164.889313 1742.257446,169.713074 1747.428101,171.977097 
	C1755.736938,175.615082 1764.225220,178.894958 1772.793579,181.878662 
	C1795.418579,189.757431 1796.263672,213.696518 1785.165283,228.304321 
	C1778.190186,237.485046 1768.309204,240.634491 1757.272217,242.129913 
	C1743.918457,243.939240 1731.724854,241.172165 1720.072510,234.985443 
	C1717.647949,233.698090 1715.421387,232.037827 1713.146973,230.577332 
	C1713.146973,230.109344 1713.033325,229.733337 1713.163208,229.484207 
	C1720.094482,216.183884 1719.694580,214.890076 1734.411621,220.598694 
	C1741.340698,223.286438 1748.553833,225.354034 1756.354736,223.115280 
	C1761.936035,221.513535 1766.402710,218.103989 1766.959351,213.290161 
	C1767.616699,207.605194 1763.972656,204.137863 1759.637451,202.082458 
	C1752.922974,198.898895 1745.802368,196.561859 1738.822876,193.948868 
	C1727.937134,189.873459 1718.268555,184.469772 1716.035278,171.690125 
	C1712.311646,150.382141 1724.746948,138.839447 1741.026978,134.155579 
	C1745.684082,132.815720 1750.688965,132.685349 1755.999390,132.000381 
z"/>
<path fill="#E97426" opacity="1.000000" stroke="none" 
	d="
M1180.000000,205.910065 
	C1179.172852,212.510681 1180.431641,217.644302 1186.926514,219.899170 
	C1188.419189,220.417389 1190.339722,220.429382 1191.868652,219.992661 
	C1198.946411,217.970978 1203.313354,219.649490 1207.042603,226.218079 
	C1208.083740,228.051758 1208.991699,229.960938 1210.136841,232.176270 
	C1205.664429,237.854340 1198.950317,240.416458 1192.486694,241.491013 
	C1183.317505,243.015396 1173.661133,243.251099 1165.268188,237.630951 
	C1157.449341,232.395172 1154.182617,224.514343 1154.076782,215.506561 
	C1153.834351,194.860901 1154.000000,174.210449 1154.000000,153.306122 
	C1150.823486,152.850113 1147.837891,152.454163 1144.863403,151.987778 
	C1138.619141,151.008728 1134.608887,143.060043 1138.529785,138.395493 
	C1140.236084,136.365692 1143.976318,135.792358 1146.920410,135.104050 
	C1155.507446,133.096603 1155.744263,132.859436 1157.023193,124.198639 
	C1157.854492,118.568359 1158.840698,112.947617 1160.084839,107.395973 
	C1161.018921,103.226974 1163.266479,100.756195 1168.285522,100.889099 
	C1178.993286,101.172623 1179.000000,100.920265 1179.000000,111.571579 
	C1179.000000,118.865402 1179.000000,126.159225 1179.000000,133.807678 
	C1188.666138,133.807678 1197.937256,133.807678 1207.970825,133.807678 
	C1207.970825,138.552704 1208.170654,142.984451 1207.814209,147.371017 
	C1207.736328,148.329224 1205.764038,149.704849 1204.508667,149.903183 
	C1196.476318,151.172226 1188.400391,152.166290 1180.000000,153.296356 
	C1180.000000,170.828125 1180.000000,188.126419 1180.000000,205.910065 
z"/>
<path fill="#E87324" opacity="1.000000" stroke="none" 
	d="
M712.875427,156.999878 
	C706.691223,158.110428 700.481506,158.174362 695.362000,160.569107 
	C687.022888,164.469955 684.213501,172.670792 684.081299,181.375671 
	C683.810425,199.204178 683.999939,217.039703 683.999939,234.872330 
	C683.999939,236.686050 683.999939,238.499771 683.999939,240.655853 
	C676.012085,240.655853 668.291687,240.655853 660.234863,240.655853 
	C660.155579,239.179230 660.010620,237.732269 660.010071,236.285248 
	C659.997131,204.453171 660.077759,172.620697 659.908875,140.789520 
	C659.885925,136.461029 661.261597,134.692825 665.506042,134.967102 
	C666.630981,135.039795 667.807800,134.814224 668.916687,134.544495 
	C674.257751,133.245407 678.856567,135.471100 680.764160,140.514618 
	C681.739258,143.092728 682.433350,145.777145 683.162537,148.118454 
	C688.520264,144.149460 693.928833,140.018387 699.469788,136.073303 
	C704.966736,132.159546 711.057251,132.470932 717.351624,133.692093 
	C720.893494,134.379242 722.030273,136.588699 721.941589,139.606888 
	C721.811523,144.037689 721.513245,148.485992 720.906006,152.874176 
	C720.285278,157.360062 716.741699,157.221313 712.875427,156.999878 
z"/>
<path fill="#E9792E" opacity="1.000000" stroke="none" 
	d="
M292.996307,82.397125 
	C293.818146,94.513222 289.524750,103.842087 279.501282,109.881477 
	C263.654175,119.429741 242.462891,111.977814 238.081543,92.308525 
	C234.180878,74.797241 245.559494,62.686440 255.828979,59.200424 
	C269.419128,54.587189 285.945923,60.663528 291.107849,76.457191 
	C291.709137,78.296967 292.363953,80.119240 292.996307,82.397125 
M250.033890,80.170715 
	C250.022827,82.498482 249.675888,84.884926 250.070190,87.141876 
	C250.907501,91.934578 251.500763,97.201149 256.872437,99.303070 
	C263.576202,101.926231 270.414551,101.497604 276.456116,97.617012 
	C278.854645,96.076401 281.451019,92.998718 281.750763,90.369308 
	C282.799622,81.167709 280.078888,74.523674 269.468079,70.992958 
	C262.567902,68.696953 254.587296,69.327034 250.033890,80.170715 
z"/>
<path fill="#E9782D" opacity="1.000000" stroke="none" 
	d="
M74.003746,306.343903 
	C73.935898,317.403961 67.076698,326.868256 56.190464,331.345825 
	C47.126701,335.073822 35.340714,332.333771 27.997084,325.612274 
	C15.234118,313.930450 16.013126,294.896027 28.714893,284.049255 
	C39.739929,274.634369 53.294319,274.290222 64.696434,284.161346 
	C71.377823,289.945618 75.321030,296.772980 74.003746,306.343903 
M38.691856,318.142273 
	C44.350346,321.238037 55.272160,319.144012 59.280033,314.194885 
	C63.325729,309.199127 62.899776,298.036835 58.598999,293.083008 
	C54.171173,287.982880 48.654877,288.106567 42.580505,288.906281 
	C34.048450,290.029572 27.325417,300.368866 30.968348,306.756256 
	C33.114578,310.519379 35.715427,314.023193 38.691856,318.142273 
z"/>
<path fill="#E9782D" opacity="1.000000" stroke="none" 
	d="
M238.623230,313.163727 
	C235.673874,303.190155 237.525986,294.325989 244.077423,286.923340 
	C253.153320,276.668243 269.654175,272.438629 281.763092,282.462006 
	C294.870605,293.311981 296.983307,310.274994 285.706299,324.666748 
	C279.110168,333.084747 261.672791,335.613037 252.396179,329.943268 
	C245.931976,325.992401 240.788925,321.106598 238.623230,313.163727 
M273.346222,319.109009 
	C275.578613,316.664642 278.325317,314.515839 279.935425,311.713898 
	C283.203217,306.027252 280.911133,300.648468 278.110321,295.358612 
	C274.562714,288.658356 264.157013,286.346741 257.489258,289.813049 
	C248.569733,294.450043 248.919281,310.925964 254.468414,317.026611 
	C259.958435,323.062286 266.305786,321.513153 273.346222,319.109009 
z"/>
<path fill="#E9792F" opacity="1.000000" stroke="none" 
	d="
M27.253941,105.751526 
	C19.266455,98.917046 17.483147,90.409630 19.558004,80.968590 
	C22.136921,69.233971 28.898298,60.399521 40.957157,58.308933 
	C57.313194,55.473370 71.620728,64.395592 74.004425,82.279587 
	C76.440826,100.558975 62.313499,113.891556 44.826717,113.911835 
	C38.067463,113.919670 32.109306,111.206886 27.253941,105.751526 
M35.372528,73.954926 
	C26.025600,83.910355 29.279686,97.547249 41.931671,101.442299 
	C50.997124,104.233200 62.409298,96.272148 63.060616,87.012909 
	C63.565971,79.828667 60.162495,75.251640 54.367992,71.800163 
	C47.788441,67.881088 41.751991,69.031937 35.372528,73.954926 
z"/>
<path fill="#E77122" opacity="1.000000" stroke="none" 
	d="
M401.001343,12.348255 
	C401.147736,10.979443 401.293121,10.077365 401.438477,9.175288 
	C401.751617,9.192316 402.064728,9.209345 402.377869,9.226374 
	C402.377869,125.072113 402.377869,240.917847 402.377869,356.763580 
	C401.918701,356.765991 401.459534,356.768402 401.000366,356.770813 
	C401.000366,242.118881 401.000366,127.466934 401.001343,12.348255 
z"/>
<path fill="#EC8742" opacity="1.000000" stroke="none" 
	d="
M1693.411743,239.677872 
	C1693.009399,204.916626 1693.007935,169.999557 1693.008667,134.624390 
	C1693.338379,134.811188 1693.952515,135.456177 1693.952148,136.100922 
	C1693.938354,170.574646 1693.872803,205.048340 1693.411743,239.677872 
z"/>
<path fill="#EA7D34" opacity="1.000000" stroke="none" 
	d="
M979.096924,173.483932 
	C979.443726,175.295242 979.953308,177.568451 979.960693,179.843292 
	C980.024658,199.534561 979.998291,219.226120 979.998291,239.375702 
	C979.665039,238.522995 979.045471,237.212921 979.042175,235.901306 
	C978.990295,215.249847 979.017700,194.598190 979.096924,173.483932 
z"/>
<path fill="#EC8742" opacity="1.000000" stroke="none" 
	d="
M1055.401978,274.684235 
	C1054.994873,263.405426 1054.958008,251.975800 1055.022461,240.546768 
	C1055.033447,238.598587 1055.478760,236.652832 1055.954834,234.359787 
	C1056.059570,247.520279 1055.932983,261.026947 1055.401978,274.684235 
z"/>
<path fill="#EA7D34" opacity="1.000000" stroke="none" 
	d="
M942.404541,239.675705 
	C942.169800,227.479843 942.335083,215.126602 942.668701,202.400558 
	C942.826233,214.524612 942.815430,227.021469 942.404541,239.675705 
z"/>
<path fill="#000000" opacity="0.000000" stroke="none" 
	d="
M577.004150,166.000153 
	C572.211182,166.000153 567.915405,166.000153 563.311584,166.000153 
	C563.311584,147.642487 563.311584,129.617828 563.311584,110.858818 
	C567.759216,111.254272 572.116394,111.453003 576.415039,112.064064 
	C584.785339,113.253937 593.128662,114.640236 601.467468,116.038559 
	C602.676514,116.241287 604.147888,116.646606 604.906128,117.490059 
	C610.668213,123.899773 615.441711,130.945999 614.942200,140.025375 
	C614.080750,155.685486 604.636841,164.946487 589.470764,165.959595 
	C585.497742,166.224991 581.492065,165.999954 577.004150,166.000153 
z"/>
<path fill="#000000" opacity="0.000000" stroke="none" 
	d="
M1089.520996,154.208298 
	C1097.818604,159.286270 1098.656250,167.505600 1098.819458,175.484268 
	C1099.035400,186.051041 1099.430420,196.850845 1097.590576,207.165619 
	C1095.036865,221.482513 1079.027954,226.113327 1066.383667,221.144745 
	C1058.323242,217.977448 1054.629761,212.434052 1054.929443,203.726501 
	C1055.244385,194.576920 1054.732056,185.398590 1055.057373,176.249741 
	C1055.681152,158.702759 1063.133423,153.745819 1078.033447,151.244171 
	C1081.496216,150.662811 1085.453979,153.030197 1089.520996,154.208298 
z"/>
<path fill="#000000" opacity="0.000000" stroke="none" 
	d="
M797.686768,217.796829 
	C782.723877,230.077118 760.159790,221.689789 756.113220,202.367294 
	C753.697754,190.833313 754.179260,179.142410 757.707825,167.819092 
	C761.595703,155.342453 775.756714,149.839401 786.869629,152.497192 
	C800.690491,155.802673 804.925598,164.651245 805.891052,177.336670 
	C806.484619,185.136490 806.111633,193.019653 805.977661,200.862061 
	C805.862732,207.591858 802.929443,213.088715 797.686768,217.796829 
z"/>
<path fill="#000000" opacity="0.000000" stroke="none" 
	d="
M264.230316,247.999756 
	C254.398804,247.990997 248.907547,237.034683 249.947388,226.362900 
	C250.441727,221.289505 256.475555,215.558762 266.313629,215.040482 
	C271.907837,214.745773 279.446381,220.910049 281.656738,227.191437 
	C283.594818,232.699097 280.649445,241.139328 275.614258,244.751129 
	C272.321442,247.113098 268.841827,248.690140 264.230316,247.999756 
z"/>
<path fill="#000000" opacity="0.000000" stroke="none" 
	d="
M118.296387,216.343872 
	C122.458321,217.605240 127.057434,218.221771 129.926620,220.779175 
	C135.353485,225.616302 135.831131,232.730576 134.676193,239.483215 
	C133.811783,244.537155 123.069099,249.273026 116.909462,247.908646 
	C110.955467,246.589828 105.260468,244.116119 104.211845,237.575150 
	C103.058426,230.380478 104.826584,223.375778 111.064102,218.654663 
	C112.857475,217.297272 115.629326,217.232620 118.296387,216.343872 
z"/>
<path fill="#000000" opacity="0.000000" stroke="none" 
	d="
M201.184082,291.644897 
	C207.388977,294.485474 207.676376,300.236023 207.747696,305.165375 
	C207.818115,310.033417 206.631699,315.181854 200.391479,316.950745 
	C194.017868,318.757477 187.941956,322.626068 181.463867,317.011414 
	C172.269913,309.042847 175.739624,298.662231 183.518341,292.170471 
	C189.149750,287.470734 194.967163,288.723297 201.184082,291.644897 
z"/>
<path fill="#000000" opacity="0.000000" stroke="none" 
	d="
M1409.707764,158.810394 
	C1416.363159,150.765976 1424.984619,149.102142 1434.332642,150.073395 
	C1443.965210,151.074203 1452.554810,164.319489 1450.559448,174.990646 
	C1437.432129,174.990646 1424.195557,175.154816 1410.967163,174.902466 
	C1406.275879,174.812973 1403.748535,168.195755 1406.306030,163.393860 
	C1407.135864,161.835709 1408.383057,160.499832 1409.707764,158.810394 
z"/>
<path fill="#000000" opacity="0.000000" stroke="none" 
	d="
M103.005783,86.810165 
	C103.338493,74.998291 109.703110,69.498108 121.956985,70.000221 
	C129.696915,70.317383 136.453003,78.601036 135.999512,87.217819 
	C135.698441,92.938286 127.840706,101.559296 122.586128,102.004166 
	C111.437325,102.948074 105.223289,98.354164 103.971077,90.488831 
	C103.794952,89.382576 103.337540,88.321106 103.005783,86.810165 
z"/>
<path fill="#000000" opacity="0.000000" stroke="none" 
	d="
M43.104568,174.994354 
	C34.548294,173.227478 30.626904,167.428665 30.260406,159.840942 
	C29.980038,154.036316 32.188885,148.493149 37.584492,144.908691 
	C42.696995,141.512299 52.612907,142.309494 58.237843,146.755798 
	C62.259350,149.934662 64.210213,157.824280 61.779831,163.288574 
	C59.111965,169.286835 55.674400,174.817184 48.093304,175.359680 
	C46.583363,175.467743 45.041557,175.130569 43.104568,174.994354 
z"/>
<path fill="#000000" opacity="0.000000" stroke="none" 
	d="
M191.232819,142.004883 
	C199.620285,142.241821 205.812851,146.993057 206.990799,153.767273 
	C208.837570,164.387680 206.156677,170.817276 198.485672,174.165115 
	C191.430756,177.244080 183.327499,173.846420 178.860382,166.706482 
	C172.908615,157.193588 176.445084,144.931839 191.232819,142.004883 
z"/>
<path fill="#000000" opacity="0.000000" stroke="none" 
	d="
M205.772247,76.286911 
	C212.263031,87.460953 207.207245,99.453835 195.155594,102.384727 
	C189.512360,103.757126 180.124054,99.255936 177.423096,93.882935 
	C174.373169,87.815735 176.468140,79.240921 181.720123,74.735558 
	C189.818848,67.788139 197.769287,68.846756 203.540390,73.278152 
	C204.391907,73.931999 204.859009,75.086510 205.772247,76.286911 
z"/>
<path fill="#000000" opacity="0.000000" stroke="none" 
	d="
M176.991714,236.481110 
	C174.544434,230.610306 177.233505,221.813599 181.954544,218.533783 
	C186.631042,215.284927 195.797531,215.649200 201.891907,219.393021 
	C213.715057,226.656143 211.404175,238.621384 200.664642,245.037140 
	C192.573105,249.870956 192.089920,249.184341 181.866425,241.317139 
	C180.168777,240.010742 178.777130,238.306686 176.991714,236.481110 
z"/>
<path fill="#000000" opacity="0.000000" stroke="none" 
	d="
M281.000336,159.031845 
	C280.882324,165.266281 274.382263,173.241257 268.510742,174.784012 
	C261.790100,176.549881 253.946762,173.436829 251.120010,166.892822 
	C248.659363,161.196350 247.587585,154.823380 251.458954,149.206451 
	C254.927795,144.173508 260.662231,143.498672 266.181366,143.806961 
	C275.144653,144.307693 280.252136,149.680481 281.000336,159.031845 
z"/>
<path fill="#000000" opacity="0.000000" stroke="none" 
	d="
M135.074188,309.799530 
	C131.800278,318.815002 122.567787,323.687195 114.345993,320.723755 
	C105.482849,317.529175 100.828598,307.687469 104.020172,298.325348 
	C106.728508,290.380707 116.442818,287.044159 126.397896,289.684601 
	C133.308868,291.517639 138.102844,302.609009 135.074188,309.799530 
z"/>
<path fill="#000000" opacity="0.000000" stroke="none" 
	d="
M107.277252,169.743088 
	C102.116371,163.639694 101.679680,154.445847 105.782761,149.682388 
	C113.009651,141.292389 121.966003,140.458038 128.585281,145.503860 
	C133.024506,148.887848 136.917969,153.934952 135.803452,160.233978 
	C133.954056,170.686478 131.126831,173.428055 122.379303,175.026123 
	C115.608040,176.263153 110.330307,174.481857 107.277252,169.743088 
z"/>
<path fill="#000000" opacity="0.000000" stroke="none" 
	d="
M33.120766,241.592484 
	C28.865934,234.371109 31.707087,228.196548 35.009159,222.079315 
	C37.893860,216.735306 42.780846,216.438736 47.983532,216.967789 
	C56.225483,217.805862 60.079407,221.697128 61.944065,231.053299 
	C63.112400,236.915573 60.826305,242.741104 56.411942,245.150421 
	C48.259144,249.600189 40.696541,249.057739 35.164402,243.626694 
	C34.570259,243.043442 33.974869,242.461456 33.120766,241.592484 
z"/>
<path fill="#000000" opacity="0.000000" stroke="none" 
	d="
M250.122620,79.759628 
	C254.587296,69.327034 262.567902,68.696953 269.468079,70.992958 
	C280.078888,74.523674 282.799622,81.167709 281.750763,90.369308 
	C281.451019,92.998718 278.854645,96.076401 276.456116,97.617012 
	C270.414551,101.497604 263.576202,101.926231 256.872437,99.303070 
	C251.500763,97.201149 250.907501,91.934578 250.070190,87.141876 
	C249.675888,84.884926 250.022827,82.498482 250.122620,79.759628 
z"/>
<path fill="#000000" opacity="0.000000" stroke="none" 
	d="
M38.401833,317.892944 
	C35.715427,314.023193 33.114578,310.519379 30.968348,306.756256 
	C27.325417,300.368866 34.048450,290.029572 42.580505,288.906281 
	C48.654877,288.106567 54.171173,287.982880 58.598999,293.083008 
	C62.899776,298.036835 63.325729,309.199127 59.280033,314.194885 
	C55.272160,319.144012 44.350346,321.238037 38.401833,317.892944 
z"/>
<path fill="#000000" opacity="0.000000" stroke="none" 
	d="
M273.076233,319.387695 
	C266.305786,321.513153 259.958435,323.062286 254.468414,317.026611 
	C248.919281,310.925964 248.569733,294.450043 257.489258,289.813049 
	C264.157013,286.346741 274.562714,288.658356 278.110321,295.358612 
	C280.911133,300.648468 283.203217,306.027252 279.935425,311.713898 
	C278.325317,314.515839 275.578613,316.664642 273.076233,319.387695 
z"/>
<path fill="#000000" opacity="0.000000" stroke="none" 
	d="
M35.682652,73.735756 
	C41.751991,69.031937 47.788441,67.881088 54.367992,71.800163 
	C60.162495,75.251640 63.565971,79.828667 63.060616,87.012909 
	C62.409298,96.272148 50.997124,104.233200 41.931671,101.442299 
	C29.279686,97.547249 26.025600,83.910355 35.682652,73.735756 
z"/>
</svg>