<svg version="1.1" id="Layer_1" xmlns="http://www.w3.org/2000/svg" xmlns:xlink="http://www.w3.org/1999/xlink" x="0px" y="0px"
	 width="100%" viewBox="0 0 871 180" enable-background="new 0 0 871 180" xml:space="preserve">
<path fill="#FFFEFE" opacity="0.000000" stroke="none" 
	d="
M649.000000,181.000000 
	C432.717957,181.000000 216.935944,181.000000 1.076957,181.000000 
	C1.076957,121.065651 1.076957,61.131176 1.076957,1.098350 
	C291.333313,1.098350 581.666626,1.098350 871.973328,1.098350 
	C871.973328,61.064098 871.973328,121.032059 871.973328,181.000000 
	C797.797791,181.000000 723.648865,181.000000 649.000000,181.000000 
M610.833313,90.817276 
	C610.833313,91.719093 610.833313,92.620903 610.833313,94.567001 
	C609.127686,92.634193 608.120911,91.600693 607.234619,90.472519 
	C597.258301,77.773003 587.293640,65.064178 577.340637,52.346367 
	C573.065430,46.883511 571.008667,46.254604 564.326538,48.405922 
	C564.326538,70.858467 564.326538,93.273079 564.326538,115.767792 
	C568.101135,115.767792 571.506226,115.767792 575.364441,115.767792 
	C575.364441,100.284126 575.364441,85.107483 575.364441,69.029213 
	C576.949463,70.902596 577.929932,71.991753 578.834290,73.140907 
	C588.614624,85.569160 598.652405,97.808548 608.022217,110.539413 
	C611.781555,115.647247 615.900208,117.004112 621.616211,115.670357 
	C621.616211,92.846771 621.616211,70.162750 621.616211,47.610268 
	C617.794006,47.610268 614.410400,47.610268 610.832947,47.610268 
	C610.832947,62.002975 610.832947,75.979004 610.833313,90.817276 
M407.349365,70.971596 
	C406.568665,71.104881 405.127106,71.431496 405.101471,71.343903 
	C403.237427,64.971695 398.476196,67.708542 394.468811,67.402122 
	C394.468811,83.838684 394.468811,99.751038 394.468811,115.834824 
	C398.358459,115.834824 401.942902,115.834824 406.042999,115.834824 
	C406.042999,105.307671 406.034821,95.024544 406.046356,84.741440 
	C406.052460,79.306503 409.067841,76.191086 414.480621,75.978920 
	C419.607605,75.777954 422.011932,78.041908 422.378937,84.002632 
	C422.665131,88.650719 422.533600,93.325722 422.550415,97.988892 
	C422.571838,103.922470 422.555634,109.856194 422.555634,115.868942 
	C426.859802,115.868942 430.476105,115.868942 434.567657,115.868942 
	C434.567657,108.878075 434.529266,102.092461 434.581573,95.307549 
	C434.614868,90.985931 434.391113,86.609329 434.999115,82.359894 
	C435.620483,78.016998 438.703705,75.980690 443.182709,75.943871 
	C447.685211,75.906853 449.965485,78.363571 450.679352,82.418633 
	C451.079132,84.689514 450.940491,87.064941 450.947113,89.393539 
	C450.972107,98.164726 450.957153,106.936035 450.957153,115.817177 
	C455.165649,115.817177 458.747467,115.817177 462.596100,115.817177 
	C462.596100,104.103241 463.424561,92.580719 462.391022,81.227699 
	C461.031067,66.288734 447.684326,64.647499 438.761780,68.064919 
	C435.555908,69.292801 432.932800,72.042252 430.024445,74.110992 
	C423.413971,65.217621 417.223907,64.105263 407.349365,70.971596 
M295.523651,58.132492 
	C292.354675,52.991207 287.564240,49.661705 281.814972,49.112526 
	C271.153168,48.094090 260.403595,47.994862 249.642578,47.510696 
	C249.642578,71.191612 249.642578,93.857605 249.642578,116.530914 
	C254.045074,116.530914 257.966766,116.530914 262.322510,116.530914 
	C262.322510,108.524841 262.322510,100.789024 262.322510,92.806473 
	C267.360779,92.550049 271.984894,92.451721 276.583496,92.056519 
	C294.796051,90.491318 303.424316,75.580765 295.523651,58.132492 
M504.158478,115.955528 
	C507.198212,113.718491 510.826965,111.971024 513.168518,109.153732 
	C520.551514,100.270714 520.670898,82.765251 513.916016,73.376839 
	C510.168182,68.167763 504.909912,65.568390 498.765411,66.772850 
	C493.964478,67.713936 489.472137,70.229225 484.830841,72.049675 
	C482.818634,66.841179 481.840302,66.399742 474.227905,67.780952 
	C474.227905,89.124619 474.227905,110.484589 474.227905,131.680542 
	C478.207886,131.680542 481.779694,131.680542 485.790161,131.680542 
	C485.790161,125.390472 485.790161,119.491364 485.790161,112.946312 
	C491.619904,116.748550 497.241669,118.136993 504.158478,115.955528 
M382.831024,79.859680 
	C379.961029,73.770439 375.235657,69.835808 368.791412,68.042992 
	C348.381439,62.364864 332.421692,78.776711 337.855316,99.815620 
	C340.931000,111.724815 349.335907,117.399178 363.423523,117.077370 
	C374.065552,116.834267 382.990936,109.721275 384.460693,98.725899 
	C385.247009,92.843552 383.641418,86.641479 382.831024,79.859680 
M102.871605,88.423332 
	C107.434486,82.909958 108.239433,78.001968 105.418427,72.894745 
	C102.917694,68.367378 97.500977,64.723656 93.031166,66.503471 
	C86.812920,68.979492 83.970055,65.503815 80.600510,61.886932 
	C78.785675,59.938885 76.943207,57.994888 74.935425,56.254116 
	C72.727654,54.339947 71.744370,52.677322 73.149261,49.490448 
	C75.192078,44.856522 73.211800,39.268856 69.272842,36.029678 
	C65.178650,32.662849 59.244091,32.105556 54.749382,34.665821 
	C50.438442,37.121414 46.813629,42.791241 48.527199,47.195282 
	C50.766331,52.950077 47.904499,55.704063 44.319138,58.805389 
	C42.433956,60.436058 40.572826,62.148983 38.993008,64.065590 
	C36.557579,67.020203 34.230469,68.141151 30.110636,66.703781 
	C24.904856,64.887520 19.295753,67.934425 16.652302,72.768394 
	C13.854517,77.884590 14.664154,83.956062 18.678244,87.960991 
	C22.714083,91.987617 28.655073,92.910912 33.894688,90.325783 
	C38.656712,87.976295 42.275242,81.956558 40.391468,77.063614 
	C38.516361,72.193184 40.526066,69.749748 43.661682,67.028534 
	C45.543293,65.395607 47.316467,63.609707 48.958347,61.734894 
	C51.667332,58.641594 54.201172,56.161694 58.966480,58.402569 
	C60.748863,59.240734 63.460632,57.943996 65.752243,57.916084 
	C67.172005,57.898788 69.015259,57.971279 69.949623,58.807045 
	C73.916000,62.354874 77.697655,66.124184 81.343506,70.003624 
	C82.139626,70.850754 82.720825,72.717293 82.344063,73.715363 
	C80.056618,79.775032 81.266701,84.865356 86.146927,88.986595 
	C90.680672,92.815247 95.873688,92.704147 102.871605,88.423332 
M805.824219,77.523590 
	C805.824036,84.677933 805.988953,91.838692 805.711487,98.982277 
	C805.638977,100.849983 804.644775,103.159966 803.284912,104.405571 
	C799.869446,107.534294 795.481445,108.479523 791.226135,106.598679 
	C787.133728,104.789871 786.913269,100.702599 786.933838,96.728989 
	C786.984314,86.970161 786.950317,77.210899 786.950317,67.460709 
	C782.629700,67.460709 778.938171,67.460709 775.074158,67.460709 
	C775.074158,78.701912 774.715454,89.525230 775.163269,100.315063 
	C775.746765,114.372643 789.271606,121.326790 801.405518,114.141251 
	C803.083374,113.147621 804.673706,112.006081 806.352600,110.901367 
	C808.596008,116.620758 809.274719,116.886765 817.414795,115.449936 
	C817.414795,99.416489 817.414795,83.379051 817.414795,67.338989 
	C813.402405,67.338989 809.817444,67.338989 805.824097,67.338989 
	C805.824097,70.608986 805.824097,73.571892 805.824219,77.523590 
M61.369335,91.814163 
	C62.667736,91.542824 64.003868,91.387718 65.258163,90.980515 
	C71.494476,88.955872 75.077148,82.321411 73.463745,75.902206 
	C71.809250,69.319504 65.650948,65.207138 59.140858,66.337730 
	C52.354698,67.516258 46.561722,73.989006 48.569275,80.130714 
	C50.538387,86.154823 47.616016,88.891861 44.122265,92.162292 
	C42.057514,94.095078 40.020832,96.072891 38.133083,98.175499 
	C36.225815,100.299828 34.681187,101.375282 31.399035,99.977585 
	C26.520302,97.899994 21.864168,99.636063 18.346775,103.574409 
	C14.682483,107.677246 13.898213,112.402695 16.254745,117.473618 
	C19.523983,124.508560 25.939285,126.487572 35.429508,123.023972 
	C39.375687,127.130905 43.441555,131.521896 47.700306,135.717087 
	C49.434147,137.425049 49.995758,138.719284 48.977348,141.260696 
	C46.722561,146.887436 48.727074,152.317535 53.628475,155.659988 
	C58.702591,159.120209 64.444077,158.810913 69.303574,154.815536 
	C73.496170,151.368469 74.953476,145.335449 72.800552,140.338562 
	C70.428917,134.834045 64.876846,131.300095 59.086193,132.954559 
	C54.409672,134.290695 51.680752,132.919022 49.021938,129.510498 
	C47.598045,127.685089 45.886360,126.049324 44.136173,124.520760 
	C40.784088,121.593132 37.905670,118.692894 40.539658,113.699760 
	C41.078575,112.678154 41.029358,110.838715 40.456390,109.825928 
	C37.961452,105.415863 40.357796,102.816154 43.457260,100.237450 
	C44.986412,98.965210 46.478874,97.571815 47.681572,95.998985 
	C51.053097,91.589874 54.859177,88.869987 61.369335,91.814163 
M72.369095,127.107674 
	C74.842484,129.581528 77.211617,132.172440 79.819702,134.495056 
	C82.243530,136.653580 83.391106,138.466446 81.879303,142.079269 
	C79.904419,146.798737 81.813004,151.278275 85.577698,154.653168 
	C89.341957,158.027664 93.728798,159.012894 98.565704,157.119446 
	C106.281113,154.099197 108.610390,147.486801 105.434219,138.684616 
	C110.538269,133.396088 115.484642,128.270935 120.529274,123.043968 
	C121.566277,123.537003 122.562134,124.154762 123.644836,124.500801 
	C128.917160,126.185837 134.674927,123.937874 137.972427,118.981659 
	C141.162582,114.186775 140.682831,108.324287 136.727020,103.762314 
	C132.979919,99.441048 126.519989,98.261818 121.218002,100.931236 
	C116.766617,103.172386 112.997238,109.341515 114.692398,113.738998 
	C116.679939,118.894958 114.631569,121.720215 111.047546,124.591072 
	C109.366386,125.937691 107.784340,127.476471 106.430565,129.149261 
	C103.521118,132.744308 100.430687,135.210724 95.547630,132.597275 
	C94.765953,132.178909 93.359901,132.052277 92.667892,132.479630 
	C87.131737,135.898438 84.266640,131.973633 81.113472,128.543488 
	C78.972847,126.214828 76.791679,123.901337 74.430061,121.804733 
	C72.435211,120.033768 71.959152,118.495651 73.057030,115.813988 
	C75.144478,110.715233 72.991829,104.698448 68.620506,101.690445 
	C63.910778,98.449577 58.034187,98.407516 53.643398,101.583260 
	C49.045803,104.908577 47.128258,110.946960 48.997131,116.214424 
	C51.799801,124.113800 58.509693,126.571602 68.819260,123.030998 
	C69.706940,124.070946 70.786621,125.335831 72.369095,127.107674 
M657.798706,66.929214 
	C645.264893,65.790749 635.638977,71.884117 632.413940,82.998222 
	C628.733459,95.681992 633.875793,109.401192 644.219360,114.493561 
	C654.506714,119.558281 668.938782,116.888519 675.072815,108.786011 
	C671.327881,102.675316 671.135925,102.639931 665.087708,105.526939 
	C663.606750,106.233856 662.021973,106.776428 660.432068,107.192963 
	C650.656555,109.754089 643.340881,103.684723 643.907532,93.084129 
	C653.165588,93.084129 662.455078,92.972565 671.739380,93.144043 
	C675.033691,93.204872 676.029114,91.990295 676.096741,88.804733 
	C676.344360,77.139603 670.001526,69.082275 657.798706,66.929214 
M89.050385,57.760921 
	C91.166267,58.072720 93.775711,59.329937 95.310524,58.528683 
	C101.194527,55.456909 104.047646,59.425732 107.320618,62.841312 
	C108.472198,64.043076 109.604439,65.276337 110.859909,66.363075 
	C114.337372,69.373199 117.495239,72.403938 114.491783,77.550499 
	C114.129082,78.172012 114.090591,79.340721 114.434235,79.960724 
	C117.644600,85.752937 114.004761,89.042908 110.140991,92.371529 
	C108.380081,93.888542 106.711494,95.548294 105.205528,97.317375 
	C102.908791,100.015358 100.817078,101.371346 96.836922,99.780235 
	C91.867050,97.793457 85.966614,100.669281 83.095238,105.317863 
	C80.213646,109.983025 80.787376,116.714348 84.405022,120.684784 
	C88.300095,124.959702 94.371544,126.202812 99.446365,123.764465 
	C104.329170,121.418365 108.433662,115.390793 106.430710,110.761963 
	C103.841499,104.778313 107.346390,102.298637 110.615555,99.111298 
	C112.403450,97.368156 114.256744,95.675613 115.891502,93.795853 
	C118.201202,91.140007 120.302513,89.712776 124.286301,91.272507 
	C129.098373,93.156517 134.795898,90.597359 137.779587,86.126968 
	C140.719452,81.722267 140.939209,77.026459 138.133713,72.484711 
	C135.488876,68.203072 131.116837,64.912872 126.519104,66.623756 
	C120.389473,68.904709 117.374786,66.073524 113.983185,62.287704 
	C112.097527,60.182884 110.111633,58.138550 107.971252,56.299305 
	C105.729393,54.372841 105.043060,52.774860 106.313988,49.596252 
	C108.359375,44.480701 106.417877,39.768002 102.350441,36.128998 
	C98.615143,32.787148 92.873596,32.252594 88.341400,34.454899 
	C79.517159,38.742817 78.257378,52.456413 89.050385,57.760921 
M707.147583,104.413734 
	C708.975830,107.394226 710.651245,110.486153 712.704468,113.302612 
	C713.576233,114.498520 715.173401,115.725014 716.557434,115.877144 
	C719.927246,116.247551 723.365234,115.997787 727.695435,115.997787 
	C721.858704,106.964508 716.559692,98.763397 711.097412,90.309692 
	C716.288513,82.746658 721.467590,75.201035 727.076111,67.029778 
	C724.756104,67.029778 723.569763,67.183662 722.436340,67.003784 
	C716.802490,66.109673 712.966980,68.110825 710.422180,73.375969 
	C708.630981,77.081879 706.039246,80.400871 703.493896,84.378670 
	C700.466248,79.564415 697.825439,74.990677 694.774353,70.709221 
	C693.649414,69.130577 691.687134,67.523834 689.877502,67.196198 
	C686.725647,66.625542 683.395874,67.037399 679.024597,67.037399 
	C683.343506,73.389717 686.679565,79.138535 690.855530,84.193535 
	C694.771118,88.933472 694.921753,92.619537 691.001953,97.497765 
	C686.507080,103.091782 682.918579,109.414055 678.544006,116.011642 
	C680.943970,116.011642 682.309753,115.808975 683.593933,116.046692 
	C689.182556,117.081223 692.591248,114.694786 695.100891,109.769287 
	C697.183228,105.682388 700.027161,101.983498 702.876831,97.582848 
	C704.347046,99.918762 705.564575,101.853188 707.147583,104.413734 
M847.671448,116.337784 
	C848.325134,116.219833 848.991455,116.148575 849.630676,115.976807 
	C857.263916,113.925873 861.754333,108.732941 862.031555,101.659348 
	C862.301147,94.780945 859.416931,91.100471 851.299255,88.059128 
	C848.044922,86.839882 844.591553,86.017380 841.560852,84.394203 
	C840.118347,83.621628 838.557983,81.319275 838.685547,79.851990 
	C838.815796,78.353508 840.816284,76.020752 842.232422,75.834358 
	C845.370850,75.421318 848.853271,75.520355 851.841064,76.495850 
	C858.338745,78.617325 858.639099,78.715668 860.940674,72.217690 
	C854.303467,66.362648 845.116333,64.730568 836.802673,67.929611 
	C830.625793,70.306458 827.136719,74.954460 826.984253,81.009392 
	C826.824036,87.371140 829.631348,91.335480 836.449341,94.075226 
	C840.132996,95.555481 844.071777,96.502068 847.553101,98.338478 
	C849.103943,99.156586 850.915588,101.805298 850.623535,103.210663 
	C850.247986,105.018456 848.016479,107.536865 846.336609,107.744431 
	C843.049133,108.150642 839.317383,107.847725 836.257874,106.620682 
	C829.585205,103.944443 829.025269,103.903969 825.947754,111.146446 
	C832.160034,115.786514 839.095825,117.656929 847.671448,116.337784 
M733.239380,88.034851 
	C736.576477,90.346031 739.756592,92.945175 743.300049,94.877968 
	C746.171875,96.444389 749.667175,96.876549 752.516541,98.471603 
	C753.933289,99.264694 755.467407,101.690483 755.241394,103.104836 
	C754.965210,104.833061 753.024658,107.450333 751.579285,107.606689 
	C748.102966,107.982742 744.203430,107.895836 741.001709,106.645767 
	C734.232300,104.002777 733.615540,103.942070 730.843994,110.723145 
	C737.769836,117.457932 750.327576,118.955452 759.049683,114.055061 
	C764.525452,110.978638 767.005554,106.122375 766.781494,99.996620 
	C766.565491,94.090172 762.910461,90.731102 757.631226,88.820221 
	C753.893066,87.467117 750.000610,86.398376 746.509827,84.568069 
	C744.937378,83.743645 743.150574,81.251007 743.328857,79.734955 
	C743.516113,78.142715 745.798401,75.812668 747.414551,75.586357 
	C750.384888,75.170441 753.707031,75.553574 756.580139,76.511055 
	C762.754700,78.568726 762.676086,78.804718 765.913086,72.498611 
	C761.875732,67.942688 756.359131,66.694794 750.699524,66.339165 
	C737.080872,65.483429 728.929749,75.251053 733.239380,88.034851 
M555.009399,74.349892 
	C555.009399,72.274384 555.009399,70.198868 555.009399,67.713776 
	C550.202393,67.713776 546.269714,67.713776 541.864014,67.713776 
	C541.864014,62.558945 541.864014,57.810303 541.864014,53.177185 
	C534.006592,51.752125 533.482544,52.104652 532.193481,59.212627 
	C531.692871,61.972843 531.173218,64.729599 530.664429,67.476021 
	C527.946655,68.148224 525.441406,68.767883 523.310852,69.294846 
	C520.875610,76.330803 525.826355,76.113770 530.058960,76.533119 
	C530.058960,85.656433 529.979248,94.465057 530.083435,103.271492 
	C530.171509,110.714928 533.414490,115.398743 539.640808,116.645576 
	C545.599915,117.838890 551.143799,116.577736 555.931641,112.651260 
	C554.076355,108.417343 552.424438,104.495018 546.540649,106.966698 
	C545.649597,107.341034 542.423584,105.162323 542.383972,104.086891 
	C542.043884,94.861427 542.188843,85.618088 542.188843,76.563782 
	C546.764832,76.098587 550.814087,75.686935 555.009399,74.349892 
M320.377167,70.921669 
	C319.311676,72.035530 318.246216,73.149384 317.012329,74.439308 
	C314.928131,67.216103 314.457764,66.977921 306.153015,68.504250 
	C306.153015,84.500778 306.153015,100.497307 306.153015,116.478790 
	C310.023712,116.478790 313.436798,116.478790 317.297485,116.478790 
	C317.297485,107.201996 317.191803,98.243240 317.330475,89.288269 
	C317.444336,81.933655 322.512939,77.744476 329.752960,78.517265 
	C331.052155,78.655937 333.495880,78.226349 333.603577,77.693703 
	C334.214508,74.671577 334.893677,71.385834 334.187469,68.526169 
	C333.942169,67.532974 329.711731,66.876480 327.467896,67.204575 
	C325.177612,67.539444 323.091766,69.272758 320.377167,70.921669 
M18.511889,37.060997 
	C14.435208,43.235382 13.927696,49.098446 17.627579,53.662724 
	C20.834038,57.618298 25.141363,59.625957 30.397181,58.514572 
	C35.878990,57.355408 39.825932,53.133545 40.692909,47.693748 
	C41.433613,43.046268 38.814171,37.293839 34.678391,34.919022 
	C29.128109,31.731981 23.900234,32.437096 18.511889,37.060997 
M139.484741,49.591969 
	C139.656387,48.451813 139.962784,47.313313 139.976807,46.171219 
	C140.044464,40.660076 136.633957,35.679741 131.620300,33.834972 
	C126.547455,31.968426 121.257957,33.296097 117.576790,37.359917 
	C114.028999,41.276489 113.239799,47.503902 115.908340,52.185802 
	C118.414192,56.582275 122.455063,58.911472 127.402924,58.746590 
	C132.972778,58.560989 137.104080,55.713707 139.484741,49.591969 
M19.940889,135.381531 
	C15.003101,140.304794 13.919069,145.445023 16.618315,151.136444 
	C18.946699,156.045883 24.003204,158.698151 29.805498,158.053467 
	C34.851673,157.492767 39.100201,153.619308 40.398689,148.156357 
	C41.638157,142.941727 39.973839,138.604889 35.795288,135.353790 
	C30.870317,131.521957 25.713305,131.617447 19.940889,135.381531 
M139.974686,146.253235 
	C139.687790,139.452621 136.635330,134.874100 131.228485,133.134415 
	C126.218407,131.522385 120.757889,133.141541 117.247887,137.279953 
	C113.876823,141.254547 113.276443,147.244278 116.046181,151.717453 
	C119.030762,156.537582 123.420074,158.907959 129.132263,158.004593 
	C135.318375,157.026291 138.584610,152.946884 139.974686,146.253235 
M189.997772,54.500000 
	C189.997772,40.014656 189.997772,25.529312 189.997772,11.043967 
	C189.480362,11.060441 188.962967,11.076915 188.445557,11.093389 
	C188.445557,63.698536 188.445557,116.303680 188.445557,168.908829 
	C188.962967,168.911255 189.480362,168.913681 189.997772,168.916107 
	C189.997772,131.110733 189.997772,93.305367 189.997772,54.500000 
z"/>
<path fill="#E87425" opacity="1.000000" stroke="none" 
	d="
M610.833130,90.386154 
	C610.832947,75.979004 610.832947,62.002975 610.832947,47.610268 
	C614.410400,47.610268 617.794006,47.610268 621.616211,47.610268 
	C621.616211,70.162750 621.616211,92.846771 621.616211,115.670357 
	C615.900208,117.004112 611.781555,115.647247 608.022217,110.539413 
	C598.652405,97.808548 588.614624,85.569160 578.834290,73.140907 
	C577.929932,71.991753 576.949463,70.902596 575.364441,69.029213 
	C575.364441,85.107483 575.364441,100.284126 575.364441,115.767792 
	C571.506226,115.767792 568.101135,115.767792 564.326538,115.767792 
	C564.326538,93.273079 564.326538,70.858467 564.326538,48.405922 
	C571.008667,46.254604 573.065430,46.883511 577.340637,52.346367 
	C587.293640,65.064178 597.258301,77.773003 607.234619,90.472519 
	C608.120911,91.600693 609.127686,92.634193 610.833313,94.567001 
	C610.833313,92.620903 610.833313,91.719093 610.833130,90.386154 
z"/>
<path fill="#E97527" opacity="1.000000" stroke="none" 
	d="
M407.635986,70.726418 
	C417.223907,64.105263 423.413971,65.217621 430.024445,74.110992 
	C432.932800,72.042252 435.555908,69.292801 438.761780,68.064919 
	C447.684326,64.647499 461.031067,66.288734 462.391022,81.227699 
	C463.424561,92.580719 462.596100,104.103241 462.596100,115.817177 
	C458.747467,115.817177 455.165649,115.817177 450.957153,115.817177 
	C450.957153,106.936035 450.972107,98.164726 450.947113,89.393539 
	C450.940491,87.064941 451.079132,84.689514 450.679352,82.418633 
	C449.965485,78.363571 447.685211,75.906853 443.182709,75.943871 
	C438.703705,75.980690 435.620483,78.016998 434.999115,82.359894 
	C434.391113,86.609329 434.614868,90.985931 434.581573,95.307549 
	C434.529266,102.092461 434.567657,108.878075 434.567657,115.868942 
	C430.476105,115.868942 426.859802,115.868942 422.555634,115.868942 
	C422.555634,109.856194 422.571838,103.922470 422.550415,97.988892 
	C422.533600,93.325722 422.665131,88.650719 422.378937,84.002632 
	C422.011932,78.041908 419.607605,75.777954 414.480621,75.978920 
	C409.067841,76.191086 406.052460,79.306503 406.046356,84.741440 
	C406.034821,95.024544 406.042999,105.307671 406.042999,115.834824 
	C401.942902,115.834824 398.358459,115.834824 394.468811,115.834824 
	C394.468811,99.751038 394.468811,83.838684 394.468811,67.402122 
	C398.476196,67.708542 403.237427,64.971695 405.101471,71.343903 
	C405.127106,71.431496 406.568665,71.104881 407.635986,70.726418 
z"/>
<path fill="#E97527" opacity="1.000000" stroke="none" 
	d="
M295.715271,58.456093 
	C303.424316,75.580765 294.796051,90.491318 276.583496,92.056519 
	C271.984894,92.451721 267.360779,92.550049 262.322510,92.806473 
	C262.322510,100.789024 262.322510,108.524841 262.322510,116.530914 
	C257.966766,116.530914 254.045074,116.530914 249.642578,116.530914 
	C249.642578,93.857605 249.642578,71.191612 249.642578,47.510696 
	C260.403595,47.994862 271.153168,48.094090 281.814972,49.112526 
	C287.564240,49.661705 292.354675,52.991207 295.715271,58.456093 
M280.425171,59.792778 
	C274.516144,58.951427 268.607117,58.110081 262.498962,57.240379 
	C262.498962,66.373474 262.498962,74.095818 262.498962,82.179100 
	C266.304810,82.179100 269.775604,82.219009 273.245087,82.169762 
	C278.483887,82.095398 282.675171,80.168137 284.732330,75.045761 
	C286.886414,69.682098 285.493317,64.279060 280.425171,59.792778 
z"/>
<path fill="#E97528" opacity="1.000000" stroke="none" 
	d="
M503.760437,116.030815 
	C497.241669,118.136993 491.619904,116.748550 485.790161,112.946312 
	C485.790161,119.491364 485.790161,125.390472 485.790161,131.680542 
	C481.779694,131.680542 478.207886,131.680542 474.227905,131.680542 
	C474.227905,110.484589 474.227905,89.124619 474.227905,67.780952 
	C481.840302,66.399742 482.818634,66.841179 484.830841,72.049675 
	C489.472137,70.229225 493.964478,67.713936 498.765411,66.772850 
	C504.909912,65.568390 510.168182,68.167763 513.916016,73.376839 
	C520.670898,82.765251 520.551514,100.270714 513.168518,109.153732 
	C510.826965,111.971024 507.198212,113.718491 503.760437,116.030815 
M504.729004,81.167305 
	C501.575531,76.239082 498.165405,74.812279 492.992096,76.256538 
	C488.054657,77.634956 485.687042,80.955345 485.681152,86.524315 
	C485.676422,91.017227 485.881622,95.521980 485.618805,99.999474 
	C485.394348,103.824074 487.158569,105.833412 490.492462,107.090988 
	C496.865204,109.494812 503.427338,107.165771 504.759338,100.554222 
	C505.964111,94.574310 505.011993,88.159866 504.729004,81.167305 
z"/>
<path fill="#E87426" opacity="1.000000" stroke="none" 
	d="
M382.973145,80.221687 
	C383.641418,86.641479 385.247009,92.843552 384.460693,98.725899 
	C382.990936,109.721275 374.065552,116.834267 363.423523,117.077370 
	C349.335907,117.399178 340.931000,111.724815 337.855316,99.815620 
	C332.421692,78.776711 348.381439,62.364864 368.791412,68.042992 
	C375.235657,69.835808 379.961029,73.770439 382.973145,80.221687 
M349.242157,95.910774 
	C349.385620,96.561127 349.525116,97.212395 349.673218,97.861694 
	C351.388306,105.380844 354.585175,108.123764 361.533966,108.040306 
	C367.898010,107.963875 371.631744,104.832413 372.511841,97.538124 
	C373.038422,93.173477 372.728119,88.535759 371.841553,84.216248 
	C370.732056,78.810219 366.652283,76.077530 361.359833,76.007065 
	C355.890106,75.934235 351.547699,78.823196 350.244202,84.187637 
	C349.393402,87.689072 349.492188,91.421242 349.242157,95.910774 
z"/>
<path fill="#E9782C" opacity="1.000000" stroke="none" 
	d="
M102.597015,88.677856 
	C95.873688,92.704147 90.680672,92.815247 86.146927,88.986595 
	C81.266701,84.865356 80.056618,79.775032 82.344063,73.715363 
	C82.720825,72.717293 82.139626,70.850754 81.343506,70.003624 
	C77.697655,66.124184 73.916000,62.354874 69.949623,58.807045 
	C69.015259,57.971279 67.172005,57.898788 65.752243,57.916084 
	C63.460632,57.943996 60.748863,59.240734 58.966480,58.402569 
	C54.201172,56.161694 51.667332,58.641594 48.958347,61.734894 
	C47.316467,63.609707 45.543293,65.395607 43.661682,67.028534 
	C40.526066,69.749748 38.516361,72.193184 40.391468,77.063614 
	C42.275242,81.956558 38.656712,87.976295 33.894688,90.325783 
	C28.655073,92.910912 22.714083,91.987617 18.678244,87.960991 
	C14.664154,83.956062 13.854517,77.884590 16.652302,72.768394 
	C19.295753,67.934425 24.904856,64.887520 30.110636,66.703781 
	C34.230469,68.141151 36.557579,67.020203 38.993008,64.065590 
	C40.572826,62.148983 42.433956,60.436058 44.319138,58.805389 
	C47.904499,55.704063 50.766331,52.950077 48.527199,47.195282 
	C46.813629,42.791241 50.438442,37.121414 54.749382,34.665821 
	C59.244091,32.105556 65.178650,32.662849 69.272842,36.029678 
	C73.211800,39.268856 75.192078,44.856522 73.149261,49.490448 
	C71.744370,52.677322 72.727654,54.339947 74.935425,56.254116 
	C76.943207,57.994888 78.785675,59.938885 80.600510,61.886932 
	C83.970055,65.503815 86.812920,68.979492 93.031166,66.503471 
	C97.500977,64.723656 102.917694,68.367378 105.418427,72.894745 
	C108.239433,78.001968 107.434486,82.909958 102.597015,88.677856 
M63.075508,53.065311 
	C68.437752,50.555843 70.071686,45.050816 66.561272,41.212589 
	C63.995777,38.407524 60.737019,37.879448 57.539684,39.516079 
	C54.255642,41.197094 53.048920,44.348652 53.957611,47.952435 
	C55.029156,52.202087 58.106144,53.620846 63.075508,53.065311 
M35.275684,79.432159 
	C35.204029,74.617661 32.635174,72.059090 27.955875,71.831970 
	C23.934916,71.636810 21.043655,74.422134 20.787710,78.446770 
	C20.520126,82.654434 22.312567,85.421867 26.596230,86.325966 
	C30.539795,87.158279 33.557816,85.032555 35.275684,79.432159 
M91.090446,85.888474 
	C95.052513,86.883858 98.875961,86.237274 100.403992,82.326347 
	C101.269745,80.110512 100.796211,76.620872 99.559868,74.501999 
	C97.461494,70.905762 92.011719,70.773415 89.074150,73.554153 
	C85.488846,76.948051 85.971611,81.501190 91.090446,85.888474 
z"/>
<path fill="#E97628" opacity="1.000000" stroke="none" 
	d="
M805.824158,77.029190 
	C805.824097,73.571892 805.824097,70.608986 805.824097,67.338989 
	C809.817444,67.338989 813.402405,67.338989 817.414795,67.338989 
	C817.414795,83.379051 817.414795,99.416489 817.414795,115.449936 
	C809.274719,116.886765 808.596008,116.620758 806.352600,110.901367 
	C804.673706,112.006081 803.083374,113.147621 801.405518,114.141251 
	C789.271606,121.326790 775.746765,114.372643 775.163269,100.315063 
	C774.715454,89.525230 775.074158,78.701912 775.074158,67.460709 
	C778.938171,67.460709 782.629700,67.460709 786.950317,67.460709 
	C786.950317,77.210899 786.984314,86.970161 786.933838,96.728989 
	C786.913269,100.702599 787.133728,104.789871 791.226135,106.598679 
	C795.481445,108.479523 799.869446,107.534294 803.284912,104.405571 
	C804.644775,103.159966 805.638977,100.849983 805.711487,98.982277 
	C805.988953,91.838692 805.824036,84.677933 805.824158,77.029190 
z"/>
<path fill="#E9792D" opacity="1.000000" stroke="none" 
	d="
M60.968838,91.811935 
	C54.859177,88.869987 51.053097,91.589874 47.681572,95.998985 
	C46.478874,97.571815 44.986412,98.965210 43.457260,100.237450 
	C40.357796,102.816154 37.961452,105.415863 40.456390,109.825928 
	C41.029358,110.838715 41.078575,112.678154 40.539658,113.699760 
	C37.905670,118.692894 40.784088,121.593132 44.136173,124.520760 
	C45.886360,126.049324 47.598045,127.685089 49.021938,129.510498 
	C51.680752,132.919022 54.409672,134.290695 59.086193,132.954559 
	C64.876846,131.300095 70.428917,134.834045 72.800552,140.338562 
	C74.953476,145.335449 73.496170,151.368469 69.303574,154.815536 
	C64.444077,158.810913 58.702591,159.120209 53.628475,155.659988 
	C48.727074,152.317535 46.722561,146.887436 48.977348,141.260696 
	C49.995758,138.719284 49.434147,137.425049 47.700306,135.717087 
	C43.441555,131.521896 39.375687,127.130905 35.429508,123.023972 
	C25.939285,126.487572 19.523983,124.508560 16.254745,117.473618 
	C13.898213,112.402695 14.682483,107.677246 18.346775,103.574409 
	C21.864168,99.636063 26.520302,97.899994 31.399035,99.977585 
	C34.681187,101.375282 36.225815,100.299828 38.133083,98.175499 
	C40.020832,96.072891 42.057514,94.095078 44.122265,92.162292 
	C47.616016,88.891861 50.538387,86.154823 48.569275,80.130714 
	C46.561722,73.989006 52.354698,67.516258 59.140858,66.337730 
	C65.650948,65.207138 71.809250,69.319504 73.463745,75.902206 
	C75.077148,82.321411 71.494476,88.955872 65.258163,90.980515 
	C64.003868,91.387718 62.667736,91.542824 60.968838,91.811935 
M27.617073,119.609879 
	C31.441244,119.282013 34.799545,117.653542 34.903076,113.631401 
	C34.968369,111.094849 33.632572,107.596962 31.711967,106.208031 
	C29.968557,104.947235 25.973255,105.015198 24.096237,106.232643 
	C22.264780,107.420532 21.163059,110.757164 20.990911,113.237228 
	C20.739302,116.862091 23.450251,118.749413 27.617073,119.609879 
M57.497288,138.708069 
	C53.296677,141.230057 52.723717,144.899216 54.717304,148.944809 
	C56.368473,152.295502 60.932903,153.597092 64.170135,151.898666 
	C67.966797,149.906754 69.112701,146.520615 67.890114,142.650574 
	C66.369125,137.835938 62.477493,137.444336 57.497288,138.708069 
M68.140182,77.802742 
	C66.222237,72.559036 62.245594,70.427628 57.968925,72.445381 
	C54.280834,74.185448 53.074368,77.286644 53.987198,81.067146 
	C54.876694,84.751015 57.715279,86.736786 61.286057,86.499466 
	C65.822075,86.197990 68.466148,83.503174 68.140182,77.802742 
z"/>
<path fill="#E9782C" opacity="1.000000" stroke="none" 
	d="
M72.117691,126.854195 
	C70.786621,125.335831 69.706940,124.070946 68.819260,123.030998 
	C58.509693,126.571602 51.799801,124.113800 48.997131,116.214424 
	C47.128258,110.946960 49.045803,104.908577 53.643398,101.583260 
	C58.034187,98.407516 63.910778,98.449577 68.620506,101.690445 
	C72.991829,104.698448 75.144478,110.715233 73.057030,115.813988 
	C71.959152,118.495651 72.435211,120.033768 74.430061,121.804733 
	C76.791679,123.901337 78.972847,126.214828 81.113472,128.543488 
	C84.266640,131.973633 87.131737,135.898438 92.667892,132.479630 
	C93.359901,132.052277 94.765953,132.178909 95.547630,132.597275 
	C100.430687,135.210724 103.521118,132.744308 106.430565,129.149261 
	C107.784340,127.476471 109.366386,125.937691 111.047546,124.591072 
	C114.631569,121.720215 116.679939,118.894958 114.692398,113.738998 
	C112.997238,109.341515 116.766617,103.172386 121.218002,100.931236 
	C126.519989,98.261818 132.979919,99.441048 136.727020,103.762314 
	C140.682831,108.324287 141.162582,114.186775 137.972427,118.981659 
	C134.674927,123.937874 128.917160,126.185837 123.644836,124.500801 
	C122.562134,124.154762 121.566277,123.537003 120.529274,123.043968 
	C115.484642,128.270935 110.538269,133.396088 105.434219,138.684616 
	C108.610390,147.486801 106.281113,154.099197 98.565704,157.119446 
	C93.728798,159.012894 89.341957,158.027664 85.577698,154.653168 
	C81.813004,151.278275 79.904419,146.798737 81.879303,142.079269 
	C83.391106,138.466446 82.243530,136.653580 79.819702,134.495056 
	C77.211617,132.172440 74.842484,129.581528 72.117691,126.854195 
M62.092529,119.451286 
	C65.643082,118.597778 68.553642,116.696304 68.053185,112.772591 
	C67.740852,110.323769 66.399971,107.078979 64.499817,106.015739 
	C62.526012,104.911278 58.648479,105.081665 56.846554,106.397209 
	C55.053806,107.706055 53.959984,111.169098 54.071327,113.618828 
	C54.255032,117.660576 57.562477,119.267227 62.092529,119.451286 
M122.749779,118.029747 
	C126.528259,120.405098 130.108749,119.948013 132.959412,116.678108 
	C135.233444,114.069633 135.342804,110.897682 133.295273,107.979996 
	C131.119980,104.880234 128.013184,104.108963 124.524933,105.254105 
	C119.578362,106.877968 118.600113,112.096756 122.749779,118.029747 
M92.167229,152.318863 
	C94.898018,151.267227 98.630997,150.937988 100.063606,148.950577 
	C101.365669,147.144241 101.109024,142.914658 99.787476,140.906097 
	C98.617851,139.128433 94.805824,137.872055 92.584373,138.351212 
	C90.427032,138.816559 87.957680,141.473923 87.146400,143.718445 
	C85.812408,147.409164 87.839668,150.416260 92.167229,152.318863 
z"/>
<path fill="#E97426" opacity="1.000000" stroke="none" 
	d="
M658.201904,66.949982 
	C670.001526,69.082275 676.344360,77.139603 676.096741,88.804733 
	C676.029114,91.990295 675.033691,93.204872 671.739380,93.144043 
	C662.455078,92.972565 653.165588,93.084129 643.907532,93.084129 
	C643.340881,103.684723 650.656555,109.754089 660.432068,107.192963 
	C662.021973,106.776428 663.606750,106.233856 665.087708,105.526939 
	C671.135925,102.639931 671.327881,102.675316 675.072815,108.786011 
	C668.938782,116.888519 654.506714,119.558281 644.219360,114.493561 
	C633.875793,109.401192 628.733459,95.681992 632.413940,82.998222 
	C635.638977,71.884117 645.264893,65.790749 658.201904,66.949982 
M645.904480,86.031197 
	C652.280762,86.031197 658.657104,86.031197 665.057373,86.031197 
	C664.612183,79.078270 661.794739,75.774155 656.314087,75.075317 
	C651.086487,74.408737 645.752136,77.707771 644.354309,82.709045 
	C644.087036,83.665428 644.765320,84.886108 645.904480,86.031197 
z"/>
<path fill="#E9782C" opacity="1.000000" stroke="none" 
	d="
M88.717102,57.568615 
	C78.257378,52.456413 79.517159,38.742817 88.341400,34.454899 
	C92.873596,32.252594 98.615143,32.787148 102.350441,36.128998 
	C106.417877,39.768002 108.359375,44.480701 106.313988,49.596252 
	C105.043060,52.774860 105.729393,54.372841 107.971252,56.299305 
	C110.111633,58.138550 112.097527,60.182884 113.983185,62.287704 
	C117.374786,66.073524 120.389473,68.904709 126.519104,66.623756 
	C131.116837,64.912872 135.488876,68.203072 138.133713,72.484711 
	C140.939209,77.026459 140.719452,81.722267 137.779587,86.126968 
	C134.795898,90.597359 129.098373,93.156517 124.286301,91.272507 
	C120.302513,89.712776 118.201202,91.140007 115.891502,93.795853 
	C114.256744,95.675613 112.403450,97.368156 110.615555,99.111298 
	C107.346390,102.298637 103.841499,104.778313 106.430710,110.761963 
	C108.433662,115.390793 104.329170,121.418365 99.446365,123.764465 
	C94.371544,126.202812 88.300095,124.959702 84.405022,120.684784 
	C80.787376,116.714348 80.213646,109.983025 83.095238,105.317863 
	C85.966614,100.669281 91.867050,97.793457 96.836922,99.780235 
	C100.817078,101.371346 102.908791,100.015358 105.205528,97.317375 
	C106.711494,95.548294 108.380081,93.888542 110.140991,92.371529 
	C114.004761,89.042908 117.644600,85.752937 114.434235,79.960724 
	C114.090591,79.340721 114.129082,78.172012 114.491783,77.550499 
	C117.495239,72.403938 114.337372,69.373199 110.859909,66.363075 
	C109.604439,65.276337 108.472198,64.043076 107.320618,62.841312 
	C104.047646,59.425732 101.194527,55.456909 95.310524,58.528683 
	C93.775711,59.329937 91.166267,58.072720 88.717102,57.568615 
M87.037834,113.980980 
	C89.298164,115.855026 91.317802,118.540855 93.906227,119.308296 
	C95.541924,119.793251 98.506317,117.857048 100.020370,116.217720 
	C102.397171,113.644264 102.392487,109.915909 99.833511,107.721512 
	C97.881111,106.047272 94.462906,104.961098 91.945793,105.326897 
	C88.075012,105.889412 86.471809,109.196457 87.037834,113.980980 
M120.719482,82.500748 
	C122.691704,86.236099 126.192482,87.270088 129.548035,85.756172 
	C131.705673,84.782707 134.099396,81.931679 134.312820,79.721878 
	C134.528259,77.490929 132.745514,74.045845 130.801392,72.914879 
	C128.859604,71.785271 125.313278,72.138756 123.043549,73.140610 
	C119.450897,74.726425 119.540443,78.357185 120.719482,82.500748 
M87.050331,43.987354 
	C86.231415,48.090710 87.548538,51.398750 91.490120,52.812611 
	C94.758430,53.984959 98.033844,53.443386 100.181602,50.080040 
	C102.373627,46.647373 101.662170,42.115463 98.538017,39.996231 
	C94.740990,37.420559 90.503235,38.624332 87.050331,43.987354 
z"/>
<path fill="#E97527" opacity="1.000000" stroke="none" 
	d="
M706.964844,104.100677 
	C705.564575,101.853188 704.347046,99.918762 702.876831,97.582848 
	C700.027161,101.983498 697.183228,105.682388 695.100891,109.769287 
	C692.591248,114.694786 689.182556,117.081223 683.593933,116.046692 
	C682.309753,115.808975 680.943970,116.011642 678.544006,116.011642 
	C682.918579,109.414055 686.507080,103.091782 691.001953,97.497765 
	C694.921753,92.619537 694.771118,88.933472 690.855530,84.193535 
	C686.679565,79.138535 683.343506,73.389717 679.024597,67.037399 
	C683.395874,67.037399 686.725647,66.625542 689.877502,67.196198 
	C691.687134,67.523834 693.649414,69.130577 694.774353,70.709221 
	C697.825439,74.990677 700.466248,79.564415 703.493896,84.378670 
	C706.039246,80.400871 708.630981,77.081879 710.422180,73.375969 
	C712.966980,68.110825 716.802490,66.109673 722.436340,67.003784 
	C723.569763,67.183662 724.756104,67.029778 727.076111,67.029778 
	C721.467590,75.201035 716.288513,82.746658 711.097412,90.309692 
	C716.559692,98.763397 721.858704,106.964508 727.695435,115.997787 
	C723.365234,115.997787 719.927246,116.247551 716.557434,115.877144 
	C715.173401,115.725014 713.576233,114.498520 712.704468,113.302612 
	C710.651245,110.486153 708.975830,107.394226 706.964844,104.100677 
z"/>
<path fill="#E97528" opacity="1.000000" stroke="none" 
	d="
M847.264404,116.466263 
	C839.095825,117.656929 832.160034,115.786514 825.947754,111.146446 
	C829.025269,103.903969 829.585205,103.944443 836.257874,106.620682 
	C839.317383,107.847725 843.049133,108.150642 846.336609,107.744431 
	C848.016479,107.536865 850.247986,105.018456 850.623535,103.210663 
	C850.915588,101.805298 849.103943,99.156586 847.553101,98.338478 
	C844.071777,96.502068 840.132996,95.555481 836.449341,94.075226 
	C829.631348,91.335480 826.824036,87.371140 826.984253,81.009392 
	C827.136719,74.954460 830.625793,70.306458 836.802673,67.929611 
	C845.116333,64.730568 854.303467,66.362648 860.940674,72.217690 
	C858.639099,78.715668 858.338745,78.617325 851.841064,76.495850 
	C848.853271,75.520355 845.370850,75.421318 842.232422,75.834358 
	C840.816284,76.020752 838.815796,78.353508 838.685547,79.851990 
	C838.557983,81.319275 840.118347,83.621628 841.560852,84.394203 
	C844.591553,86.017380 848.044922,86.839882 851.299255,88.059128 
	C859.416931,91.100471 862.301147,94.780945 862.031555,101.659348 
	C861.754333,108.732941 857.263916,113.925873 849.630676,115.976807 
	C848.991455,116.148575 848.325134,116.219833 847.264404,116.466263 
z"/>
<path fill="#E97527" opacity="1.000000" stroke="none" 
	d="
M733.076782,87.692329 
	C728.929749,75.251053 737.080872,65.483429 750.699524,66.339165 
	C756.359131,66.694794 761.875732,67.942688 765.913086,72.498611 
	C762.676086,78.804718 762.754700,78.568726 756.580139,76.511055 
	C753.707031,75.553574 750.384888,75.170441 747.414551,75.586357 
	C745.798401,75.812668 743.516113,78.142715 743.328857,79.734955 
	C743.150574,81.251007 744.937378,83.743645 746.509827,84.568069 
	C750.000610,86.398376 753.893066,87.467117 757.631226,88.820221 
	C762.910461,90.731102 766.565491,94.090172 766.781494,99.996620 
	C767.005554,106.122375 764.525452,110.978638 759.049683,114.055061 
	C750.327576,118.955452 737.769836,117.457932 730.843994,110.723145 
	C733.615540,103.942070 734.232300,104.002777 741.001709,106.645767 
	C744.203430,107.895836 748.102966,107.982742 751.579285,107.606689 
	C753.024658,107.450333 754.965210,104.833061 755.241394,103.104836 
	C755.467407,101.690483 753.933289,99.264694 752.516541,98.471603 
	C749.667175,96.876549 746.171875,96.444389 743.300049,94.877968 
	C739.756592,92.945175 736.576477,90.346031 733.076782,87.692329 
z"/>
<path fill="#E97426" opacity="1.000000" stroke="none" 
	d="
M554.936340,74.812592 
	C550.814087,75.686935 546.764832,76.098587 542.188843,76.563782 
	C542.188843,85.618088 542.043884,94.861427 542.383972,104.086891 
	C542.423584,105.162323 545.649597,107.341034 546.540649,106.966698 
	C552.424438,104.495018 554.076355,108.417343 555.931641,112.651260 
	C551.143799,116.577736 545.599915,117.838890 539.640808,116.645576 
	C533.414490,115.398743 530.171509,110.714928 530.083435,103.271492 
	C529.979248,94.465057 530.058960,85.656433 530.058960,76.533119 
	C525.826355,76.113770 520.875610,76.330803 523.310852,69.294846 
	C525.441406,68.767883 527.946655,68.148224 530.664429,67.476021 
	C531.173218,64.729599 531.692871,61.972843 532.193481,59.212627 
	C533.482544,52.104652 534.006592,51.752125 541.864014,53.177185 
	C541.864014,57.810303 541.864014,62.558945 541.864014,67.713776 
	C546.269714,67.713776 550.202393,67.713776 555.009399,67.713776 
	C555.009399,70.198868 555.009399,72.274384 554.936340,74.812592 
z"/>
<path fill="#E87324" opacity="1.000000" stroke="none" 
	d="
M320.646790,70.657761 
	C323.091766,69.272758 325.177612,67.539444 327.467896,67.204575 
	C329.711731,66.876480 333.942169,67.532974 334.187469,68.526169 
	C334.893677,71.385834 334.214508,74.671577 333.603577,77.693703 
	C333.495880,78.226349 331.052155,78.655937 329.752960,78.517265 
	C322.512939,77.744476 317.444336,81.933655 317.330475,89.288269 
	C317.191803,98.243240 317.297485,107.201996 317.297485,116.478790 
	C313.436798,116.478790 310.023712,116.478790 306.153015,116.478790 
	C306.153015,100.497307 306.153015,84.500778 306.153809,68.502167 
	C314.457764,66.977921 314.928131,67.216103 317.012329,74.439308 
	C318.246216,73.149384 319.311676,72.035530 320.646790,70.657761 
z"/>
<path fill="#E9792E" opacity="1.000000" stroke="none" 
	d="
M18.792738,36.809059 
	C23.900234,32.437096 29.128109,31.731981 34.678391,34.919022 
	C38.814171,37.293839 41.433613,43.046268 40.692909,47.693748 
	C39.825932,53.133545 35.878990,57.355408 30.397181,58.514572 
	C25.141363,59.625957 20.834038,57.618298 17.627579,53.662724 
	C13.927696,49.098446 14.435208,43.235382 18.792738,36.809059 
M30.012995,53.056076 
	C35.484291,50.314613 37.066929,44.998154 33.519493,41.173767 
	C30.930698,38.382862 27.691357,37.966560 24.461920,39.513355 
	C20.989254,41.176643 20.223244,44.434944 20.966541,47.963371 
	C21.902126,52.404587 25.116827,53.536179 30.012995,53.056076 
z"/>
<path fill="#E9792E" opacity="1.000000" stroke="none" 
	d="
M139.348526,49.967274 
	C137.104080,55.713707 132.972778,58.560989 127.402924,58.746590 
	C122.455063,58.911472 118.414192,56.582275 115.908340,52.185802 
	C113.239799,47.503902 114.028999,41.276489 117.576790,37.359917 
	C121.257957,33.296097 126.547455,31.968426 131.620300,33.834972 
	C136.633957,35.679741 140.044464,40.660076 139.976807,46.171219 
	C139.962784,47.313313 139.656387,48.451813 139.348526,49.967274 
M132.999130,41.445110 
	C127.375824,37.083939 120.920105,38.322845 120.280632,44.223637 
	C120.007896,46.740261 121.254807,50.893970 123.065277,51.801304 
	C125.474503,53.008720 129.681625,52.752018 132.075958,51.348904 
	C135.351089,49.429630 135.384796,45.542610 132.999130,41.445110 
z"/>
<path fill="#E9782C" opacity="1.000000" stroke="none" 
	d="
M20.231129,135.145203 
	C25.713305,131.617447 30.870317,131.521957 35.795288,135.353790 
	C39.973839,138.604889 41.638157,142.941727 40.398689,148.156357 
	C39.100201,153.619308 34.851673,157.492767 29.805498,158.053467 
	C24.003204,158.698151 18.946699,156.045883 16.618315,151.136444 
	C13.919069,145.445023 15.003101,140.304794 20.231129,135.145203 
M25.184816,138.312622 
	C21.266371,139.878403 19.832106,143.188095 21.067352,146.725525 
	C21.853119,148.975769 24.410290,151.772766 26.509886,152.089035 
	C28.866056,152.443954 32.370831,150.912643 33.933041,149.014511 
	C35.222382,147.447906 35.172234,143.863556 34.353535,141.685257 
	C33.022938,138.144989 29.556417,137.506775 25.184816,138.312622 
z"/>
<path fill="#E9782C" opacity="1.000000" stroke="none" 
	d="
M139.946625,146.661392 
	C138.584610,152.946884 135.318375,157.026291 129.132263,158.004593 
	C123.420074,158.907959 119.030762,156.537582 116.046181,151.717453 
	C113.276443,147.244278 113.876823,141.254547 117.247887,137.279953 
	C120.757889,133.141541 126.218407,131.522385 131.228485,133.134415 
	C136.635330,134.874100 139.687790,139.452621 139.946625,146.661392 
M131.901764,139.389374 
	C128.183838,137.032761 124.078896,136.937195 121.680649,140.462845 
	C120.263786,142.545792 120.272797,146.581573 121.268288,149.094315 
	C122.797485,152.954224 127.521736,153.676453 131.070206,151.500656 
	C135.115051,149.020508 135.617172,144.906876 131.901764,139.389374 
z"/>
<path fill="#E77122" opacity="1.000000" stroke="none" 
	d="
M189.997772,55.000000 
	C189.997772,93.305367 189.997772,131.110733 189.997772,168.916107 
	C189.480362,168.913681 188.962967,168.911255 188.445557,168.908829 
	C188.445557,116.303680 188.445557,63.698536 188.445557,11.093389 
	C188.962967,11.076915 189.480362,11.060441 189.997772,11.043967 
	C189.997772,25.529312 189.997772,40.014656 189.997772,55.000000 
z"/>
<path fill="#FEFCFA" opacity="0.000000" stroke="none" 
	d="
M280.768188,59.979919 
	C285.493317,64.279060 286.886414,69.682098 284.732330,75.045761 
	C282.675171,80.168137 278.483887,82.095398 273.245087,82.169762 
	C269.775604,82.219009 266.304810,82.179100 262.498962,82.179100 
	C262.498962,74.095818 262.498962,66.373474 262.498962,57.240379 
	C268.607117,58.110081 274.516144,58.951427 280.768188,59.979919 
z"/>
<path fill="#FFFDFD" opacity="0.000000" stroke="none" 
	d="
M504.869995,81.552170 
	C505.011993,88.159866 505.964111,94.574310 504.759338,100.554222 
	C503.427338,107.165771 496.865204,109.494812 490.492462,107.090988 
	C487.158569,105.833412 485.394348,103.824074 485.618805,99.999474 
	C485.881622,95.521980 485.676422,91.017227 485.681152,86.524315 
	C485.687042,80.955345 488.054657,77.634956 492.992096,76.256538 
	C498.165405,74.812279 501.575531,76.239082 504.869995,81.552170 
z"/>
<path fill="#FFFCFA" opacity="0.000000" stroke="none" 
	d="
M349.203888,95.480423 
	C349.492188,91.421242 349.393402,87.689072 350.244202,84.187637 
	C351.547699,78.823196 355.890106,75.934235 361.359833,76.007065 
	C366.652283,76.077530 370.732056,78.810219 371.841553,84.216248 
	C372.728119,88.535759 373.038422,93.173477 372.511841,97.538124 
	C371.631744,104.832413 367.898010,107.963875 361.533966,108.040306 
	C354.585175,108.123764 351.388306,105.380844 349.673218,97.861694 
	C349.525116,97.212395 349.385620,96.561127 349.203888,95.480423 
z"/>
<path fill="#FEFCFA" opacity="0.000000" stroke="none" 
	d="
M62.662338,53.120049 
	C58.106144,53.620846 55.029156,52.202087 53.957611,47.952435 
	C53.048920,44.348652 54.255642,41.197094 57.539684,39.516079 
	C60.737019,37.879448 63.995777,38.407524 66.561272,41.212589 
	C70.071686,45.050816 68.437752,50.555843 62.662338,53.120049 
z"/>
<path fill="#FFFCFA" opacity="0.000000" stroke="none" 
	d="
M35.228611,79.842361 
	C33.557816,85.032555 30.539795,87.158279 26.596230,86.325966 
	C22.312567,85.421867 20.520126,82.654434 20.787710,78.446770 
	C21.043655,74.422134 23.934916,71.636810 27.955875,71.831970 
	C32.635174,72.059090 35.204029,74.617661 35.228611,79.842361 
z"/>
<path fill="#FEFCFA" opacity="0.000000" stroke="none" 
	d="
M90.717796,85.714943 
	C85.971611,81.501190 85.488846,76.948051 89.074150,73.554153 
	C92.011719,70.773415 97.461494,70.905762 99.559868,74.501999 
	C100.796211,76.620872 101.269745,80.110512 100.403992,82.326347 
	C98.875961,86.237274 95.052513,86.883858 90.717796,85.714943 
z"/>
<path fill="#FEFCFA" opacity="0.000000" stroke="none" 
	d="
M27.259769,119.508705 
	C23.450251,118.749413 20.739302,116.862091 20.990911,113.237228 
	C21.163059,110.757164 22.264780,107.420532 24.096237,106.232643 
	C25.973255,105.015198 29.968557,104.947235 31.711967,106.208031 
	C33.632572,107.596962 34.968369,111.094849 34.903076,113.631401 
	C34.799545,117.653542 31.441244,119.282013 27.259769,119.508705 
z"/>
<path fill="#FFFCFA" opacity="0.000000" stroke="none" 
	d="
M57.851330,138.513306 
	C62.477493,137.444336 66.369125,137.835938 67.890114,142.650574 
	C69.112701,146.520615 67.966797,149.906754 64.170135,151.898666 
	C60.932903,153.597092 56.368473,152.295502 54.717304,148.944809 
	C52.723717,144.899216 53.296677,141.230057 57.851330,138.513306 
z"/>
<path fill="#FEFCFA" opacity="0.000000" stroke="none" 
	d="
M68.187286,78.215942 
	C68.466148,83.503174 65.822075,86.197990 61.286057,86.499466 
	C57.715279,86.736786 54.876694,84.751015 53.987198,81.067146 
	C53.074368,77.286644 54.280834,74.185448 57.968925,72.445381 
	C62.245594,70.427628 66.222237,72.559036 68.187286,78.215942 
z"/>
<path fill="#FEFCFA" opacity="0.000000" stroke="none" 
	d="
M61.731995,119.541611 
	C57.562477,119.267227 54.255032,117.660576 54.071327,113.618828 
	C53.959984,111.169098 55.053806,107.706055 56.846554,106.397209 
	C58.648479,105.081665 62.526012,104.911278 64.499817,106.015739 
	C66.399971,107.078979 67.740852,110.323769 68.053185,112.772591 
	C68.553642,116.696304 65.643082,118.597778 61.731995,119.541611 
z"/>
<path fill="#FEFAF8" opacity="0.000000" stroke="none" 
	d="
M122.435165,117.771637 
	C118.600113,112.096756 119.578362,106.877968 124.524933,105.254105 
	C128.013184,104.108963 131.119980,104.880234 133.295273,107.979996 
	C135.342804,110.897682 135.233444,114.069633 132.959412,116.678108 
	C130.108749,119.948013 126.528259,120.405098 122.435165,117.771637 
z"/>
<path fill="#FEFAF8" opacity="0.000000" stroke="none" 
	d="
M91.802246,152.225861 
	C87.839668,150.416260 85.812408,147.409164 87.146400,143.718445 
	C87.957680,141.473923 90.427032,138.816559 92.584373,138.351212 
	C94.805824,137.872055 98.617851,139.128433 99.787476,140.906097 
	C101.109024,142.914658 101.365669,147.144241 100.063606,148.950577 
	C98.630997,150.937988 94.898018,151.267227 91.802246,152.225861 
z"/>
<path fill="#FFFCFA" opacity="0.000000" stroke="none" 
	d="
M645.455933,86.008034 
	C644.765320,84.886108 644.087036,83.665428 644.354309,82.709045 
	C645.752136,77.707771 651.086487,74.408737 656.314087,75.075317 
	C661.794739,75.774155 664.612183,79.078270 665.057373,86.031197 
	C658.657104,86.031197 652.280762,86.031197 645.455933,86.008034 
z"/>
<path fill="#FEFCFA" opacity="0.000000" stroke="none" 
	d="
M86.965263,113.586838 
	C86.471809,109.196457 88.075012,105.889412 91.945793,105.326897 
	C94.462906,104.961098 97.881111,106.047272 99.833511,107.721512 
	C102.392487,109.915909 102.397171,113.644264 100.020370,116.217720 
	C98.506317,117.857048 95.541924,119.793251 93.906227,119.308296 
	C91.317802,118.540855 89.298164,115.855026 86.965263,113.586838 
z"/>
<path fill="#FEFCFA" opacity="0.000000" stroke="none" 
	d="
M120.519653,82.149284 
	C119.540443,78.357185 119.450897,74.726425 123.043549,73.140610 
	C125.313278,72.138756 128.859604,71.785271 130.801392,72.914879 
	C132.745514,74.045845 134.528259,77.490929 134.312820,79.721878 
	C134.099396,81.931679 131.705673,84.782707 129.548035,85.756172 
	C126.192482,87.270088 122.691704,86.236099 120.519653,82.149284 
z"/>
<path fill="#FEFCFA" opacity="0.000000" stroke="none" 
	d="
M87.160217,43.592171 
	C90.503235,38.624332 94.740990,37.420559 98.538017,39.996231 
	C101.662170,42.115463 102.373627,46.647373 100.181602,50.080040 
	C98.033844,53.443386 94.758430,53.984959 91.490120,52.812611 
	C87.548538,51.398750 86.231415,48.090710 87.160217,43.592171 
z"/>
<path fill="#FFFCFA" opacity="0.000000" stroke="none" 
	d="
M29.602123,53.112789 
	C25.116827,53.536179 21.902126,52.404587 20.966541,47.963371 
	C20.223244,44.434944 20.989254,41.176643 24.461920,39.513355 
	C27.691357,37.966560 30.930698,38.382862 33.519493,41.173767 
	C37.066929,44.998154 35.484291,50.314613 29.602123,53.112789 
z"/>
<path fill="#FFFCFA" opacity="0.000000" stroke="none" 
	d="
M133.235382,41.752167 
	C135.384796,45.542610 135.351089,49.429630 132.075958,51.348904 
	C129.681625,52.752018 125.474503,53.008720 123.065277,51.801304 
	C121.254807,50.893970 120.007896,46.740261 120.280632,44.223637 
	C120.920105,38.322845 127.375824,37.083939 133.235382,41.752167 
z"/>
<path fill="#FFFCFA" opacity="0.000000" stroke="none" 
	d="
M25.582321,138.206284 
	C29.556417,137.506775 33.022938,138.144989 34.353535,141.685257 
	C35.172234,143.863556 35.222382,147.447906 33.933041,149.014511 
	C32.370831,150.912643 28.866056,152.443954 26.509886,152.089035 
	C24.410290,151.772766 21.853119,148.975769 21.067352,146.725525 
	C19.832106,143.188095 21.266371,139.878403 25.582321,138.206284 
z"/>
<path fill="#FEFAF8" opacity="0.000000" stroke="none" 
	d="
M132.193054,139.652405 
	C135.617172,144.906876 135.115051,149.020508 131.070206,151.500656 
	C127.521736,153.676453 122.797485,152.954224 121.268288,149.094315 
	C120.272797,146.581573 120.263786,142.545792 121.680649,140.462845 
	C124.078896,136.937195 128.183838,137.032761 132.193054,139.652405 
z"/>
</svg>